<mxfile host="app.diagrams.net" modified="2021-03-29T07:56:46.625Z" agent="5.0 (Macintosh; Intel Mac OS X 10_14_3) AppleWebKit/537.36 (KHTML, like Gecko) Chrome/89.0.4389.90 Safari/537.36" etag="mV_KCz1blrRR3nR9HONh" version="14.4.9" type="github">
  <diagram id="2X9w02Ml61jo0lZJwtkf" name="Page-1">
    <mxGraphModel dx="836" dy="376" grid="1" gridSize="10" guides="1" tooltips="1" connect="1" arrows="1" fold="1" page="1" pageScale="1" pageWidth="827" pageHeight="1169" math="0" shadow="0">
      <root>
        <mxCell id="0" />
        <mxCell id="1" parent="0" />
        <mxCell id="Lp_xnb2QCeQAAz86b2ZK-484" value="" style="edgeStyle=orthogonalEdgeStyle;rounded=0;orthogonalLoop=1;jettySize=auto;html=1;" edge="1" parent="1" source="Lp_xnb2QCeQAAz86b2ZK-482" target="Lp_xnb2QCeQAAz86b2ZK-483">
          <mxGeometry relative="1" as="geometry" />
        </mxCell>
        <mxCell id="Lp_xnb2QCeQAAz86b2ZK-487" value="事件触发，添加任务到queue" style="edgeLabel;html=1;align=center;verticalAlign=middle;resizable=0;points=[];" vertex="1" connectable="0" parent="Lp_xnb2QCeQAAz86b2ZK-484">
          <mxGeometry x="-0.36" y="-1" relative="1" as="geometry">
            <mxPoint x="1" y="8" as="offset" />
          </mxGeometry>
        </mxCell>
        <mxCell id="Lp_xnb2QCeQAAz86b2ZK-482" value="邮件通知" style="rounded=0;whiteSpace=wrap;html=1;fillColor=#33F8FF;" vertex="1" parent="1">
          <mxGeometry x="330" y="110" width="120" height="60" as="geometry" />
        </mxCell>
        <mxCell id="Lp_xnb2QCeQAAz86b2ZK-489" value="" style="edgeStyle=orthogonalEdgeStyle;rounded=0;orthogonalLoop=1;jettySize=auto;html=1;" edge="1" parent="1" source="Lp_xnb2QCeQAAz86b2ZK-483" target="Lp_xnb2QCeQAAz86b2ZK-488">
          <mxGeometry relative="1" as="geometry" />
        </mxCell>
        <mxCell id="Lp_xnb2QCeQAAz86b2ZK-498" value="异步执行" style="edgeLabel;html=1;align=center;verticalAlign=middle;resizable=0;points=[];" vertex="1" connectable="0" parent="Lp_xnb2QCeQAAz86b2ZK-489">
          <mxGeometry x="-0.125" relative="1" as="geometry">
            <mxPoint as="offset" />
          </mxGeometry>
        </mxCell>
        <mxCell id="Lp_xnb2QCeQAAz86b2ZK-483" value="redis队列" style="rounded=0;whiteSpace=wrap;html=1;fillColor=#33F8FF;" vertex="1" parent="1">
          <mxGeometry x="330" y="240" width="120" height="60" as="geometry" />
        </mxCell>
        <mxCell id="Lp_xnb2QCeQAAz86b2ZK-491" value="" style="edgeStyle=orthogonalEdgeStyle;rounded=0;orthogonalLoop=1;jettySize=auto;html=1;" edge="1" parent="1" source="Lp_xnb2QCeQAAz86b2ZK-488" target="Lp_xnb2QCeQAAz86b2ZK-490">
          <mxGeometry relative="1" as="geometry" />
        </mxCell>
        <mxCell id="Lp_xnb2QCeQAAz86b2ZK-500" value="" style="edgeStyle=orthogonalEdgeStyle;rounded=0;orthogonalLoop=1;jettySize=auto;html=1;entryX=1;entryY=0.5;entryDx=0;entryDy=0;exitX=0;exitY=0.5;exitDx=0;exitDy=0;" edge="1" parent="1" source="Lp_xnb2QCeQAAz86b2ZK-499" target="Lp_xnb2QCeQAAz86b2ZK-488">
          <mxGeometry relative="1" as="geometry">
            <mxPoint x="520" y="390" as="sourcePoint" />
          </mxGeometry>
        </mxCell>
        <mxCell id="Lp_xnb2QCeQAAz86b2ZK-488" value="队列监听" style="rounded=0;whiteSpace=wrap;html=1;fillColor=#33F8FF;" vertex="1" parent="1">
          <mxGeometry x="330" y="360" width="120" height="60" as="geometry" />
        </mxCell>
        <mxCell id="Lp_xnb2QCeQAAz86b2ZK-493" value="" style="edgeStyle=orthogonalEdgeStyle;rounded=0;orthogonalLoop=1;jettySize=auto;html=1;" edge="1" parent="1" source="Lp_xnb2QCeQAAz86b2ZK-490">
          <mxGeometry relative="1" as="geometry">
            <mxPoint x="650" y="600" as="targetPoint" />
            <Array as="points">
              <mxPoint x="650" y="490" />
              <mxPoint x="650" y="600" />
            </Array>
          </mxGeometry>
        </mxCell>
        <mxCell id="Lp_xnb2QCeQAAz86b2ZK-494" value="失败" style="edgeLabel;html=1;align=center;verticalAlign=middle;resizable=0;points=[];" vertex="1" connectable="0" parent="Lp_xnb2QCeQAAz86b2ZK-493">
          <mxGeometry x="-0.1333" y="1" relative="1" as="geometry">
            <mxPoint as="offset" />
          </mxGeometry>
        </mxCell>
        <mxCell id="Lp_xnb2QCeQAAz86b2ZK-504" value="切换邮箱重试" style="edgeLabel;html=1;align=center;verticalAlign=middle;resizable=0;points=[];" vertex="1" connectable="0" parent="Lp_xnb2QCeQAAz86b2ZK-493">
          <mxGeometry x="0.5652" y="-1" relative="1" as="geometry">
            <mxPoint as="offset" />
          </mxGeometry>
        </mxCell>
        <mxCell id="Lp_xnb2QCeQAAz86b2ZK-496" value="" style="edgeStyle=orthogonalEdgeStyle;rounded=0;orthogonalLoop=1;jettySize=auto;html=1;" edge="1" parent="1" source="Lp_xnb2QCeQAAz86b2ZK-490" target="Lp_xnb2QCeQAAz86b2ZK-495">
          <mxGeometry relative="1" as="geometry" />
        </mxCell>
        <mxCell id="Lp_xnb2QCeQAAz86b2ZK-497" value="发送成功" style="edgeLabel;html=1;align=center;verticalAlign=middle;resizable=0;points=[];" vertex="1" connectable="0" parent="Lp_xnb2QCeQAAz86b2ZK-496">
          <mxGeometry x="-0.3778" y="2" relative="1" as="geometry">
            <mxPoint as="offset" />
          </mxGeometry>
        </mxCell>
        <mxCell id="Lp_xnb2QCeQAAz86b2ZK-490" value="任务消费" style="rhombus;whiteSpace=wrap;html=1;rounded=0;fillColor=#33F8FF;" vertex="1" parent="1">
          <mxGeometry x="350" y="450" width="80" height="80" as="geometry" />
        </mxCell>
        <mxCell id="Lp_xnb2QCeQAAz86b2ZK-495" value="结束" style="whiteSpace=wrap;html=1;rounded=0;fillColor=#33F8FF;" vertex="1" parent="1">
          <mxGeometry x="330" y="830" width="120" height="60" as="geometry" />
        </mxCell>
        <mxCell id="Lp_xnb2QCeQAAz86b2ZK-502" value="" style="edgeStyle=orthogonalEdgeStyle;rounded=0;orthogonalLoop=1;jettySize=auto;html=1;entryX=0.5;entryY=0;entryDx=0;entryDy=0;exitX=0.5;exitY=1;exitDx=0;exitDy=0;" edge="1" parent="1" source="Lp_xnb2QCeQAAz86b2ZK-501" target="Lp_xnb2QCeQAAz86b2ZK-499">
          <mxGeometry relative="1" as="geometry" />
        </mxCell>
        <mxCell id="Lp_xnb2QCeQAAz86b2ZK-499" value="常驻进程worker监听" style="whiteSpace=wrap;html=1;rounded=0;fillColor=#33F8FF;" vertex="1" parent="1">
          <mxGeometry x="530" y="360" width="120" height="60" as="geometry" />
        </mxCell>
        <mxCell id="Lp_xnb2QCeQAAz86b2ZK-501" value="supervisorctl守护进程" style="whiteSpace=wrap;html=1;rounded=0;fillColor=#33F8FF;" vertex="1" parent="1">
          <mxGeometry x="530" y="220" width="120" height="60" as="geometry" />
        </mxCell>
        <mxCell id="Lp_xnb2QCeQAAz86b2ZK-503" value="" style="endArrow=none;dashed=1;html=1;dashPattern=1 3;strokeWidth=2;" edge="1" parent="1">
          <mxGeometry width="50" height="50" relative="1" as="geometry">
            <mxPoint x="520" y="600" as="sourcePoint" />
            <mxPoint x="830" y="600" as="targetPoint" />
          </mxGeometry>
        </mxCell>
        <mxCell id="Lp_xnb2QCeQAAz86b2ZK-506" value="" style="endArrow=none;dashed=1;html=1;dashPattern=1 3;strokeWidth=2;" edge="1" parent="1">
          <mxGeometry width="50" height="50" relative="1" as="geometry">
            <mxPoint x="520" y="800" as="sourcePoint" />
            <mxPoint x="520" y="600" as="targetPoint" />
          </mxGeometry>
        </mxCell>
        <mxCell id="Lp_xnb2QCeQAAz86b2ZK-516" value="" style="edgeStyle=orthogonalEdgeStyle;rounded=0;orthogonalLoop=1;jettySize=auto;html=1;" edge="1" parent="1" source="Lp_xnb2QCeQAAz86b2ZK-510" target="Lp_xnb2QCeQAAz86b2ZK-511">
          <mxGeometry relative="1" as="geometry" />
        </mxCell>
        <mxCell id="Lp_xnb2QCeQAAz86b2ZK-510" value="gmail" style="ellipse;whiteSpace=wrap;html=1;aspect=fixed;fillColor=#33F8FF;" vertex="1" parent="1">
          <mxGeometry x="600" y="610" width="80" height="80" as="geometry" />
        </mxCell>
        <mxCell id="Lp_xnb2QCeQAAz86b2ZK-517" value="" style="edgeStyle=orthogonalEdgeStyle;rounded=0;orthogonalLoop=1;jettySize=auto;html=1;" edge="1" parent="1" source="Lp_xnb2QCeQAAz86b2ZK-511" target="Lp_xnb2QCeQAAz86b2ZK-510">
          <mxGeometry relative="1" as="geometry" />
        </mxCell>
        <mxCell id="Lp_xnb2QCeQAAz86b2ZK-511" value="out look" style="ellipse;whiteSpace=wrap;html=1;aspect=fixed;fillColor=#33F8FF;" vertex="1" parent="1">
          <mxGeometry x="710" y="610" width="80" height="80" as="geometry" />
        </mxCell>
        <mxCell id="Lp_xnb2QCeQAAz86b2ZK-518" value="" style="edgeStyle=orthogonalEdgeStyle;rounded=0;orthogonalLoop=1;jettySize=auto;html=1;" edge="1" parent="1" source="Lp_xnb2QCeQAAz86b2ZK-512">
          <mxGeometry relative="1" as="geometry">
            <mxPoint x="750" y="690" as="targetPoint" />
            <Array as="points">
              <mxPoint x="750" y="710" />
            </Array>
          </mxGeometry>
        </mxCell>
        <mxCell id="Lp_xnb2QCeQAAz86b2ZK-519" value="" style="edgeStyle=orthogonalEdgeStyle;rounded=0;orthogonalLoop=1;jettySize=auto;html=1;" edge="1" parent="1" source="Lp_xnb2QCeQAAz86b2ZK-512" target="Lp_xnb2QCeQAAz86b2ZK-510">
          <mxGeometry relative="1" as="geometry">
            <Array as="points">
              <mxPoint x="640" y="710" />
            </Array>
          </mxGeometry>
        </mxCell>
        <mxCell id="Lp_xnb2QCeQAAz86b2ZK-512" value="Opera email" style="ellipse;whiteSpace=wrap;html=1;aspect=fixed;fillColor=#33F8FF;" vertex="1" parent="1">
          <mxGeometry x="650" y="690" width="80" height="80" as="geometry" />
        </mxCell>
        <mxCell id="Lp_xnb2QCeQAAz86b2ZK-513" value="" style="endArrow=none;dashed=1;html=1;dashPattern=1 3;strokeWidth=2;" edge="1" parent="1">
          <mxGeometry width="50" height="50" relative="1" as="geometry">
            <mxPoint x="520" y="800" as="sourcePoint" />
            <mxPoint x="830" y="800" as="targetPoint" />
          </mxGeometry>
        </mxCell>
        <mxCell id="Lp_xnb2QCeQAAz86b2ZK-514" value="" style="endArrow=none;dashed=1;html=1;dashPattern=1 3;strokeWidth=2;" edge="1" parent="1">
          <mxGeometry width="50" height="50" relative="1" as="geometry">
            <mxPoint x="827" y="800" as="sourcePoint" />
            <mxPoint x="827" y="600" as="targetPoint" />
          </mxGeometry>
        </mxCell>
        <mxCell id="Lp_xnb2QCeQAAz86b2ZK-515" value="邮件池" style="text;html=1;align=center;verticalAlign=middle;resizable=0;points=[];autosize=1;" vertex="1" parent="1">
          <mxGeometry x="530" y="610" width="50" height="20" as="geometry" />
        </mxCell>
        <mxCell id="Lp_xnb2QCeQAAz86b2ZK-520" value="" style="endArrow=classic;html=1;" edge="1" parent="1">
          <mxGeometry width="50" height="50" relative="1" as="geometry">
            <mxPoint x="520" y="700" as="sourcePoint" />
            <mxPoint x="390" y="700" as="targetPoint" />
          </mxGeometry>
        </mxCell>
        <mxCell id="Lp_xnb2QCeQAAz86b2ZK-521" value="重试成功" style="edgeLabel;html=1;align=center;verticalAlign=middle;resizable=0;points=[];" vertex="1" connectable="0" parent="Lp_xnb2QCeQAAz86b2ZK-520">
          <mxGeometry x="0.1538" y="-4" relative="1" as="geometry">
            <mxPoint as="offset" />
          </mxGeometry>
        </mxCell>
        <mxCell id="Lp_xnb2QCeQAAz86b2ZK-526" value="" style="edgeStyle=orthogonalEdgeStyle;rounded=0;orthogonalLoop=1;jettySize=auto;html=1;" edge="1" parent="1" source="Lp_xnb2QCeQAAz86b2ZK-522" target="Lp_xnb2QCeQAAz86b2ZK-525">
          <mxGeometry relative="1" as="geometry" />
        </mxCell>
        <mxCell id="Lp_xnb2QCeQAAz86b2ZK-522" value="faild job table" style="whiteSpace=wrap;html=1;rounded=0;fillColor=#33F8FF;" vertex="1" parent="1">
          <mxGeometry x="590" y="840" width="120" height="60" as="geometry" />
        </mxCell>
        <mxCell id="Lp_xnb2QCeQAAz86b2ZK-523" value="" style="endArrow=classic;html=1;" edge="1" parent="1" target="Lp_xnb2QCeQAAz86b2ZK-522">
          <mxGeometry width="50" height="50" relative="1" as="geometry">
            <mxPoint x="650" y="800" as="sourcePoint" />
            <mxPoint x="660" y="740" as="targetPoint" />
          </mxGeometry>
        </mxCell>
        <mxCell id="Lp_xnb2QCeQAAz86b2ZK-524" value="重试失败" style="text;html=1;align=center;verticalAlign=middle;resizable=0;points=[];autosize=1;" vertex="1" parent="1">
          <mxGeometry x="620" y="810" width="60" height="20" as="geometry" />
        </mxCell>
        <mxCell id="Lp_xnb2QCeQAAz86b2ZK-525" value="手动重试" style="whiteSpace=wrap;html=1;rounded=0;fillColor=#33F8FF;" vertex="1" parent="1">
          <mxGeometry x="790" y="840" width="120" height="60" as="geometry" />
        </mxCell>
        <mxCell id="Lp_xnb2QCeQAAz86b2ZK-529" value="" style="curved=1;endArrow=classic;html=1;entryX=0.858;entryY=1;entryDx=0;entryDy=0;entryPerimeter=0;" edge="1" parent="1" source="Lp_xnb2QCeQAAz86b2ZK-525" target="Lp_xnb2QCeQAAz86b2ZK-495">
          <mxGeometry width="50" height="50" relative="1" as="geometry">
            <mxPoint x="777" y="1000" as="sourcePoint" />
            <mxPoint x="827" y="950" as="targetPoint" />
            <Array as="points">
              <mxPoint x="780" y="930" />
              <mxPoint x="680" y="940" />
            </Array>
          </mxGeometry>
        </mxCell>
        <mxCell id="Lp_xnb2QCeQAAz86b2ZK-530" value="重试成功" style="edgeLabel;html=1;align=center;verticalAlign=middle;resizable=0;points=[];" vertex="1" connectable="0" parent="Lp_xnb2QCeQAAz86b2ZK-529">
          <mxGeometry x="0.0175" y="-4" relative="1" as="geometry">
            <mxPoint as="offset" />
          </mxGeometry>
        </mxCell>
        <mxCell id="Lp_xnb2QCeQAAz86b2ZK-533" value="" style="curved=1;endArrow=classic;html=1;exitX=0.5;exitY=0;exitDx=0;exitDy=0;entryX=0.95;entryY=0.017;entryDx=0;entryDy=0;entryPerimeter=0;" edge="1" parent="1">
          <mxGeometry width="50" height="50" relative="1" as="geometry">
            <mxPoint x="846" y="840" as="sourcePoint" />
            <mxPoint x="700" y="841.02" as="targetPoint" />
            <Array as="points">
              <mxPoint x="810" y="820" />
              <mxPoint x="726" y="820" />
            </Array>
          </mxGeometry>
        </mxCell>
        <mxCell id="Lp_xnb2QCeQAAz86b2ZK-534" value="重试失败" style="edgeLabel;html=1;align=center;verticalAlign=middle;resizable=0;points=[];" vertex="1" connectable="0" parent="Lp_xnb2QCeQAAz86b2ZK-533">
          <mxGeometry x="0.2123" y="2" relative="1" as="geometry">
            <mxPoint x="16.57" y="-2" as="offset" />
          </mxGeometry>
        </mxCell>
        <mxCell id="Lp_xnb2QCeQAAz86b2ZK-535" value="" style="edgeStyle=orthogonalEdgeStyle;rounded=0;orthogonalLoop=1;jettySize=auto;html=1;" edge="1" parent="1" source="Lp_xnb2QCeQAAz86b2ZK-536" target="Lp_xnb2QCeQAAz86b2ZK-541">
          <mxGeometry relative="1" as="geometry" />
        </mxCell>
        <mxCell id="Lp_xnb2QCeQAAz86b2ZK-536" value="mysql&lt;br&gt;master" style="outlineConnect=0;dashed=0;verticalLabelPosition=bottom;verticalAlign=top;align=center;html=1;shape=mxgraph.aws3.mysql_db_instance_2;fillColor=#2E73B8;gradientColor=none;" vertex="1" parent="1">
          <mxGeometry x="378" y="1440" width="60" height="63" as="geometry" />
        </mxCell>
        <mxCell id="Lp_xnb2QCeQAAz86b2ZK-537" value="admin后台" style="rounded=0;whiteSpace=wrap;html=1;fillColor=#33F8FF;" vertex="1" parent="1">
          <mxGeometry x="368" y="1240" width="80" height="60" as="geometry" />
        </mxCell>
        <mxCell id="Lp_xnb2QCeQAAz86b2ZK-538" value="go 微服务" style="rounded=0;whiteSpace=wrap;html=1;fillColor=#33F8FF;" vertex="1" parent="1">
          <mxGeometry x="882" y="1240" width="90" height="60" as="geometry" />
        </mxCell>
        <mxCell id="Lp_xnb2QCeQAAz86b2ZK-539" value="cron、任务" style="rounded=0;whiteSpace=wrap;html=1;fillColor=#33F8FF;" vertex="1" parent="1">
          <mxGeometry x="640" y="1240" width="80" height="60" as="geometry" />
        </mxCell>
        <mxCell id="Lp_xnb2QCeQAAz86b2ZK-540" value="文件存储服务" style="rounded=0;whiteSpace=wrap;html=1;fillColor=#33F8FF;" vertex="1" parent="1">
          <mxGeometry x="480" y="1240" width="120" height="60" as="geometry" />
        </mxCell>
        <mxCell id="Lp_xnb2QCeQAAz86b2ZK-541" value="mysql&lt;br&gt;slave" style="outlineConnect=0;dashed=0;verticalLabelPosition=bottom;verticalAlign=top;align=center;html=1;shape=mxgraph.aws3.mysql_db_instance_2;fillColor=#2E73B8;gradientColor=none;" vertex="1" parent="1">
          <mxGeometry x="378" y="1560" width="60" height="63" as="geometry" />
        </mxCell>
        <mxCell id="Lp_xnb2QCeQAAz86b2ZK-542" value="" style="edgeStyle=orthogonalEdgeStyle;rounded=0;orthogonalLoop=1;jettySize=auto;html=1;" edge="1" parent="1" source="Lp_xnb2QCeQAAz86b2ZK-543" target="Lp_xnb2QCeQAAz86b2ZK-544">
          <mxGeometry relative="1" as="geometry" />
        </mxCell>
        <mxCell id="Lp_xnb2QCeQAAz86b2ZK-543" value="redis&lt;br&gt;master" style="outlineConnect=0;dashed=0;verticalLabelPosition=bottom;verticalAlign=top;align=center;html=1;shape=mxgraph.aws3.rds_db_instance_read_replica;fillColor=#2E73B8;gradientColor=none;" vertex="1" parent="1">
          <mxGeometry x="538" y="1437" width="49.5" height="66" as="geometry" />
        </mxCell>
        <mxCell id="Lp_xnb2QCeQAAz86b2ZK-544" value="redis&lt;br&gt;slave" style="outlineConnect=0;dashed=0;verticalLabelPosition=bottom;verticalAlign=top;align=center;html=1;shape=mxgraph.aws3.rds_db_instance_read_replica;fillColor=#2E73B8;gradientColor=none;" vertex="1" parent="1">
          <mxGeometry x="538" y="1558.5" width="49.5" height="66" as="geometry" />
        </mxCell>
        <mxCell id="Lp_xnb2QCeQAAz86b2ZK-545" value="php 服务" style="rounded=0;whiteSpace=wrap;html=1;fillColor=#33F8FF;" vertex="1" parent="1">
          <mxGeometry x="760" y="1240" width="80" height="60" as="geometry" />
        </mxCell>
        <mxCell id="Lp_xnb2QCeQAAz86b2ZK-546" value="" style="edgeStyle=orthogonalEdgeStyle;rounded=0;orthogonalLoop=1;jettySize=auto;html=1;" edge="1" parent="1" source="Lp_xnb2QCeQAAz86b2ZK-548" target="Lp_xnb2QCeQAAz86b2ZK-549">
          <mxGeometry relative="1" as="geometry" />
        </mxCell>
        <mxCell id="Lp_xnb2QCeQAAz86b2ZK-547" value="" style="edgeStyle=orthogonalEdgeStyle;rounded=0;orthogonalLoop=1;jettySize=auto;html=1;" edge="1" parent="1" source="Lp_xnb2QCeQAAz86b2ZK-548" target="Lp_xnb2QCeQAAz86b2ZK-550">
          <mxGeometry relative="1" as="geometry" />
        </mxCell>
        <mxCell id="Lp_xnb2QCeQAAz86b2ZK-548" value="es master" style="outlineConnect=0;dashed=0;verticalLabelPosition=bottom;verticalAlign=top;align=center;html=1;shape=mxgraph.aws3.db_on_instance;fillColor=#F58534;gradientColor=none;" vertex="1" parent="1">
          <mxGeometry x="688" y="1440" width="60" height="64.5" as="geometry" />
        </mxCell>
        <mxCell id="Lp_xnb2QCeQAAz86b2ZK-549" value="es slave" style="outlineConnect=0;dashed=0;verticalLabelPosition=bottom;verticalAlign=top;align=center;html=1;shape=mxgraph.aws3.db_on_instance;fillColor=#F58534;gradientColor=none;" vertex="1" parent="1">
          <mxGeometry x="628" y="1560" width="60" height="64.5" as="geometry" />
        </mxCell>
        <mxCell id="Lp_xnb2QCeQAAz86b2ZK-550" value="es slave" style="outlineConnect=0;dashed=0;verticalLabelPosition=bottom;verticalAlign=top;align=center;html=1;shape=mxgraph.aws3.db_on_instance;fillColor=#F58534;gradientColor=none;" vertex="1" parent="1">
          <mxGeometry x="738" y="1558.5" width="60" height="64.5" as="geometry" />
        </mxCell>
        <mxCell id="Lp_xnb2QCeQAAz86b2ZK-551" value="" style="edgeStyle=orthogonalEdgeStyle;rounded=0;orthogonalLoop=1;jettySize=auto;html=1;" edge="1" parent="1" source="Lp_xnb2QCeQAAz86b2ZK-553" target="Lp_xnb2QCeQAAz86b2ZK-554">
          <mxGeometry relative="1" as="geometry" />
        </mxCell>
        <mxCell id="Lp_xnb2QCeQAAz86b2ZK-552" value="" style="edgeStyle=orthogonalEdgeStyle;rounded=0;orthogonalLoop=1;jettySize=auto;html=1;" edge="1" parent="1" source="Lp_xnb2QCeQAAz86b2ZK-553" target="Lp_xnb2QCeQAAz86b2ZK-555">
          <mxGeometry relative="1" as="geometry" />
        </mxCell>
        <mxCell id="Lp_xnb2QCeQAAz86b2ZK-553" value="etcd master" style="outlineConnect=0;dashed=0;verticalLabelPosition=bottom;verticalAlign=top;align=center;html=1;shape=mxgraph.aws3.db_accelerator;fillColor=#2E73B8;gradientColor=none;" vertex="1" parent="1">
          <mxGeometry x="882" y="1431.75" width="72" height="81" as="geometry" />
        </mxCell>
        <mxCell id="Lp_xnb2QCeQAAz86b2ZK-554" value="etcd slave" style="outlineConnect=0;dashed=0;verticalLabelPosition=bottom;verticalAlign=top;align=center;html=1;shape=mxgraph.aws3.db_accelerator;fillColor=#2E73B8;gradientColor=none;" vertex="1" parent="1">
          <mxGeometry x="828" y="1558.5" width="72" height="81" as="geometry" />
        </mxCell>
        <mxCell id="Lp_xnb2QCeQAAz86b2ZK-555" value="etcd slave" style="outlineConnect=0;dashed=0;verticalLabelPosition=bottom;verticalAlign=top;align=center;html=1;shape=mxgraph.aws3.db_accelerator;fillColor=#2E73B8;gradientColor=none;" vertex="1" parent="1">
          <mxGeometry x="928" y="1560" width="72" height="81" as="geometry" />
        </mxCell>
        <mxCell id="Lp_xnb2QCeQAAz86b2ZK-556" value="" style="endArrow=none;dashed=1;html=1;dashPattern=1 3;strokeWidth=2;" edge="1" parent="1">
          <mxGeometry width="50" height="50" relative="1" as="geometry">
            <mxPoint x="350" y="1180" as="sourcePoint" />
            <mxPoint x="990" y="1180" as="targetPoint" />
          </mxGeometry>
        </mxCell>
        <mxCell id="Lp_xnb2QCeQAAz86b2ZK-557" value="" style="endArrow=none;dashed=1;html=1;dashPattern=1 3;strokeWidth=2;" edge="1" parent="1">
          <mxGeometry width="50" height="50" relative="1" as="geometry">
            <mxPoint x="350" y="1340" as="sourcePoint" />
            <mxPoint x="350" y="1180" as="targetPoint" />
          </mxGeometry>
        </mxCell>
        <mxCell id="Lp_xnb2QCeQAAz86b2ZK-558" value="" style="endArrow=none;dashed=1;html=1;dashPattern=1 3;strokeWidth=2;" edge="1" parent="1">
          <mxGeometry width="50" height="50" relative="1" as="geometry">
            <mxPoint x="350" y="1340" as="sourcePoint" />
            <mxPoint x="990" y="1340" as="targetPoint" />
          </mxGeometry>
        </mxCell>
        <mxCell id="Lp_xnb2QCeQAAz86b2ZK-559" value="" style="endArrow=none;dashed=1;html=1;dashPattern=1 3;strokeWidth=2;" edge="1" parent="1">
          <mxGeometry width="50" height="50" relative="1" as="geometry">
            <mxPoint x="990" y="1340" as="sourcePoint" />
            <mxPoint x="990" y="1180" as="targetPoint" />
          </mxGeometry>
        </mxCell>
        <mxCell id="Lp_xnb2QCeQAAz86b2ZK-560" value="client" style="text;html=1;align=center;verticalAlign=middle;resizable=0;points=[];autosize=1;" vertex="1" parent="1">
          <mxGeometry x="360" y="1190" width="40" height="20" as="geometry" />
        </mxCell>
        <mxCell id="Lp_xnb2QCeQAAz86b2ZK-561" value="producer" style="text;html=1;align=center;verticalAlign=middle;resizable=0;points=[];autosize=1;" vertex="1" parent="1">
          <mxGeometry x="460" y="1190" width="60" height="20" as="geometry" />
        </mxCell>
        <mxCell id="Lp_xnb2QCeQAAz86b2ZK-562" value="数据仓库" style="outlineConnect=0;dashed=0;verticalLabelPosition=bottom;verticalAlign=top;align=center;html=1;shape=mxgraph.aws3.items;fillColor=#2E73B8;gradientColor=none;" vertex="1" parent="1">
          <mxGeometry x="360" y="980" width="63" height="66" as="geometry" />
        </mxCell>
        <mxCell id="Lp_xnb2QCeQAAz86b2ZK-563" value="ufile、s3" style="outlineConnect=0;dashed=0;verticalLabelPosition=bottom;verticalAlign=top;align=center;html=1;shape=mxgraph.aws3.internet_gateway;fillColor=#F58534;gradientColor=none;" vertex="1" parent="1">
          <mxGeometry x="510" y="980" width="69" height="72" as="geometry" />
        </mxCell>
        <mxCell id="Lp_xnb2QCeQAAz86b2ZK-564" value="机器硬盘" style="outlineConnect=0;dashed=0;verticalLabelPosition=bottom;verticalAlign=top;align=center;html=1;shape=mxgraph.aws3.table;fillColor=#2E73B8;gradientColor=none;" vertex="1" parent="1">
          <mxGeometry x="670.5" y="980" width="67.5" height="66" as="geometry" />
        </mxCell>
        <mxCell id="Lp_xnb2QCeQAAz86b2ZK-565" value="queue、Kafka等&lt;br&gt;消息中间件" style="outlineConnect=0;dashed=0;verticalLabelPosition=bottom;verticalAlign=top;align=center;html=1;shape=mxgraph.aws3.tape_storage;fillColor=#7D7C7C;gradientColor=none;" vertex="1" parent="1">
          <mxGeometry x="830" y="993.5" width="75" height="39" as="geometry" />
        </mxCell>
        <mxCell id="Lp_xnb2QCeQAAz86b2ZK-566" value="" style="endArrow=classic;html=1;entryX=0.5;entryY=0;entryDx=0;entryDy=0;entryPerimeter=0;" edge="1" parent="1" target="Lp_xnb2QCeQAAz86b2ZK-536">
          <mxGeometry width="50" height="50" relative="1" as="geometry">
            <mxPoint x="408" y="1340" as="sourcePoint" />
            <mxPoint x="740" y="1320" as="targetPoint" />
          </mxGeometry>
        </mxCell>
        <mxCell id="Lp_xnb2QCeQAAz86b2ZK-567" value="业务数据" style="edgeLabel;html=1;align=center;verticalAlign=middle;resizable=0;points=[];" vertex="1" connectable="0" parent="Lp_xnb2QCeQAAz86b2ZK-566">
          <mxGeometry x="-0.06" y="2" relative="1" as="geometry">
            <mxPoint as="offset" />
          </mxGeometry>
        </mxCell>
        <mxCell id="Lp_xnb2QCeQAAz86b2ZK-568" value="" style="endArrow=classic;html=1;entryX=0.5;entryY=0;entryDx=0;entryDy=0;entryPerimeter=0;" edge="1" parent="1">
          <mxGeometry width="50" height="50" relative="1" as="geometry">
            <mxPoint x="562.25" y="1340" as="sourcePoint" />
            <mxPoint x="562.25" y="1440" as="targetPoint" />
          </mxGeometry>
        </mxCell>
        <mxCell id="Lp_xnb2QCeQAAz86b2ZK-569" value="缓存数据" style="edgeLabel;html=1;align=center;verticalAlign=middle;resizable=0;points=[];" vertex="1" connectable="0" parent="Lp_xnb2QCeQAAz86b2ZK-568">
          <mxGeometry x="-0.06" y="2" relative="1" as="geometry">
            <mxPoint as="offset" />
          </mxGeometry>
        </mxCell>
        <mxCell id="Lp_xnb2QCeQAAz86b2ZK-570" value="" style="endArrow=classic;html=1;entryX=0.5;entryY=0;entryDx=0;entryDy=0;entryPerimeter=0;" edge="1" parent="1">
          <mxGeometry width="50" height="50" relative="1" as="geometry">
            <mxPoint x="717.5" y="1340" as="sourcePoint" />
            <mxPoint x="717.5" y="1440" as="targetPoint" />
          </mxGeometry>
        </mxCell>
        <mxCell id="Lp_xnb2QCeQAAz86b2ZK-571" value="item数据" style="edgeLabel;html=1;align=center;verticalAlign=middle;resizable=0;points=[];" vertex="1" connectable="0" parent="Lp_xnb2QCeQAAz86b2ZK-570">
          <mxGeometry x="-0.06" y="2" relative="1" as="geometry">
            <mxPoint as="offset" />
          </mxGeometry>
        </mxCell>
        <mxCell id="Lp_xnb2QCeQAAz86b2ZK-572" value="" style="endArrow=classic;html=1;entryX=0.5;entryY=0;entryDx=0;entryDy=0;entryPerimeter=0;" edge="1" parent="1">
          <mxGeometry width="50" height="50" relative="1" as="geometry">
            <mxPoint x="918" y="1340" as="sourcePoint" />
            <mxPoint x="917.5" y="1431.75" as="targetPoint" />
          </mxGeometry>
        </mxCell>
        <mxCell id="Lp_xnb2QCeQAAz86b2ZK-573" value="微服务注册信息" style="edgeLabel;html=1;align=center;verticalAlign=middle;resizable=0;points=[];" vertex="1" connectable="0" parent="Lp_xnb2QCeQAAz86b2ZK-572">
          <mxGeometry x="-0.06" y="2" relative="1" as="geometry">
            <mxPoint as="offset" />
          </mxGeometry>
        </mxCell>
        <mxCell id="Lp_xnb2QCeQAAz86b2ZK-574" value="" style="endArrow=classic;html=1;" edge="1" parent="1" target="Lp_xnb2QCeQAAz86b2ZK-562">
          <mxGeometry width="50" height="50" relative="1" as="geometry">
            <mxPoint x="392" y="1180" as="sourcePoint" />
            <mxPoint x="740" y="1140" as="targetPoint" />
          </mxGeometry>
        </mxCell>
        <mxCell id="Lp_xnb2QCeQAAz86b2ZK-575" value="打点、用户行为数据" style="edgeLabel;html=1;align=center;verticalAlign=middle;resizable=0;points=[];" vertex="1" connectable="0" parent="Lp_xnb2QCeQAAz86b2ZK-574">
          <mxGeometry x="0.2985" relative="1" as="geometry">
            <mxPoint x="-0.24" y="17" as="offset" />
          </mxGeometry>
        </mxCell>
        <mxCell id="Lp_xnb2QCeQAAz86b2ZK-576" value="" style="endArrow=classic;html=1;" edge="1" parent="1">
          <mxGeometry width="50" height="50" relative="1" as="geometry">
            <mxPoint x="544" y="1180" as="sourcePoint" />
            <mxPoint x="543.9988023952095" y="1050" as="targetPoint" />
          </mxGeometry>
        </mxCell>
        <mxCell id="Lp_xnb2QCeQAAz86b2ZK-577" value="文件、图片数据" style="edgeLabel;html=1;align=center;verticalAlign=middle;resizable=0;points=[];" vertex="1" connectable="0" parent="Lp_xnb2QCeQAAz86b2ZK-576">
          <mxGeometry x="0.2985" relative="1" as="geometry">
            <mxPoint x="-0.24" y="17" as="offset" />
          </mxGeometry>
        </mxCell>
        <mxCell id="Lp_xnb2QCeQAAz86b2ZK-578" value="" style="endArrow=classic;html=1;" edge="1" parent="1">
          <mxGeometry width="50" height="50" relative="1" as="geometry">
            <mxPoint x="703.75" y="1176" as="sourcePoint" />
            <mxPoint x="703.7488023952096" y="1046" as="targetPoint" />
          </mxGeometry>
        </mxCell>
        <mxCell id="Lp_xnb2QCeQAAz86b2ZK-579" value="日志文件、系统资源" style="edgeLabel;html=1;align=center;verticalAlign=middle;resizable=0;points=[];" vertex="1" connectable="0" parent="Lp_xnb2QCeQAAz86b2ZK-578">
          <mxGeometry x="0.2985" relative="1" as="geometry">
            <mxPoint x="-0.24" y="17" as="offset" />
          </mxGeometry>
        </mxCell>
        <mxCell id="Lp_xnb2QCeQAAz86b2ZK-580" value="" style="endArrow=classic;html=1;" edge="1" parent="1">
          <mxGeometry width="50" height="50" relative="1" as="geometry">
            <mxPoint x="867" y="1176" as="sourcePoint" />
            <mxPoint x="866.9988023952096" y="1046" as="targetPoint" />
          </mxGeometry>
        </mxCell>
        <mxCell id="Lp_xnb2QCeQAAz86b2ZK-581" value="日志、站内信、打点数据等" style="edgeLabel;html=1;align=center;verticalAlign=middle;resizable=0;points=[];" vertex="1" connectable="0" parent="Lp_xnb2QCeQAAz86b2ZK-580">
          <mxGeometry x="0.2985" relative="1" as="geometry">
            <mxPoint x="-0.24" y="17" as="offset" />
          </mxGeometry>
        </mxCell>
        <mxCell id="Lp_xnb2QCeQAAz86b2ZK-582" value="请求" style="rounded=0;whiteSpace=wrap;html=1;fillColor=#FF9457;" vertex="1" parent="1">
          <mxGeometry x="380" y="1700" width="20" height="680" as="geometry" />
        </mxCell>
        <mxCell id="Lp_xnb2QCeQAAz86b2ZK-583" value="D&lt;br&gt;B" style="rounded=0;whiteSpace=wrap;html=1;fillColor=#61FF66;" vertex="1" parent="1">
          <mxGeometry x="1120" y="1700" width="20" height="680" as="geometry" />
        </mxCell>
        <mxCell id="Lp_xnb2QCeQAAz86b2ZK-584" value="" style="endArrow=classic;html=1;entryX=-0.25;entryY=0.035;entryDx=0;entryDy=0;entryPerimeter=0;exitX=1.1;exitY=0.031;exitDx=0;exitDy=0;exitPerimeter=0;" edge="1" parent="1" source="Lp_xnb2QCeQAAz86b2ZK-582" target="Lp_xnb2QCeQAAz86b2ZK-583">
          <mxGeometry width="50" height="50" relative="1" as="geometry">
            <mxPoint x="730" y="1800" as="sourcePoint" />
            <mxPoint x="780" y="1750" as="targetPoint" />
          </mxGeometry>
        </mxCell>
        <mxCell id="Lp_xnb2QCeQAAz86b2ZK-585" value="写数据库" style="text;html=1;align=center;verticalAlign=middle;resizable=0;points=[];autosize=1;" vertex="1" parent="1">
          <mxGeometry x="680" y="1710" width="60" height="20" as="geometry" />
        </mxCell>
        <mxCell id="Lp_xnb2QCeQAAz86b2ZK-586" value="es" style="outlineConnect=0;dashed=0;verticalLabelPosition=bottom;verticalAlign=top;align=center;html=1;shape=mxgraph.aws3.db_on_instance;fillColor=#F58534;gradientColor=none;" vertex="1" parent="1">
          <mxGeometry x="724" y="1740" width="60" height="64.5" as="geometry" />
        </mxCell>
        <mxCell id="Lp_xnb2QCeQAAz86b2ZK-587" value="" style="endArrow=classic;html=1;entryX=0;entryY=0.75;entryDx=0;entryDy=0;" edge="1" parent="1" target="Lp_xnb2QCeQAAz86b2ZK-589">
          <mxGeometry width="50" height="50" relative="1" as="geometry">
            <mxPoint x="402" y="1835" as="sourcePoint" />
            <mxPoint x="780" y="1780" as="targetPoint" />
          </mxGeometry>
        </mxCell>
        <mxCell id="Lp_xnb2QCeQAAz86b2ZK-588" value="item发布" style="edgeLabel;html=1;align=center;verticalAlign=middle;resizable=0;points=[];" vertex="1" connectable="0" parent="Lp_xnb2QCeQAAz86b2ZK-587">
          <mxGeometry x="-0.3096" y="1" relative="1" as="geometry">
            <mxPoint x="36.99" as="offset" />
          </mxGeometry>
        </mxCell>
        <mxCell id="Lp_xnb2QCeQAAz86b2ZK-589" value="双&lt;br&gt;写" style="rounded=0;whiteSpace=wrap;html=1;fillColor=#33F8FF;" vertex="1" parent="1">
          <mxGeometry x="580" y="1760" width="20" height="100" as="geometry" />
        </mxCell>
        <mxCell id="Lp_xnb2QCeQAAz86b2ZK-590" value="" style="endArrow=classic;html=1;exitX=1.067;exitY=0.91;exitDx=0;exitDy=0;entryX=0;entryY=0.221;entryDx=0;entryDy=0;entryPerimeter=0;exitPerimeter=0;" edge="1" parent="1" source="Lp_xnb2QCeQAAz86b2ZK-589" target="Lp_xnb2QCeQAAz86b2ZK-583">
          <mxGeometry width="50" height="50" relative="1" as="geometry">
            <mxPoint x="620" y="1820" as="sourcePoint" />
            <mxPoint x="1116" y="1820" as="targetPoint" />
            <Array as="points" />
          </mxGeometry>
        </mxCell>
        <mxCell id="Lp_xnb2QCeQAAz86b2ZK-591" value="写入mysql" style="edgeLabel;html=1;align=center;verticalAlign=middle;resizable=0;points=[];" vertex="1" connectable="0" parent="Lp_xnb2QCeQAAz86b2ZK-590">
          <mxGeometry x="-0.1912" y="2" relative="1" as="geometry">
            <mxPoint x="48.66000000000001" y="-8.82" as="offset" />
          </mxGeometry>
        </mxCell>
        <mxCell id="Lp_xnb2QCeQAAz86b2ZK-592" value="" style="endArrow=classic;html=1;entryX=0.05;entryY=0.93;entryDx=0;entryDy=0;entryPerimeter=0;exitX=0.9;exitY=0.4;exitDx=0;exitDy=0;exitPerimeter=0;" edge="1" parent="1" source="Lp_xnb2QCeQAAz86b2ZK-589" target="Lp_xnb2QCeQAAz86b2ZK-586">
          <mxGeometry width="50" height="50" relative="1" as="geometry">
            <mxPoint x="612" y="1800" as="sourcePoint" />
            <mxPoint x="820" y="1797" as="targetPoint" />
          </mxGeometry>
        </mxCell>
        <mxCell id="Lp_xnb2QCeQAAz86b2ZK-593" value="写入es" style="edgeLabel;html=1;align=center;verticalAlign=middle;resizable=0;points=[];" vertex="1" connectable="0" parent="Lp_xnb2QCeQAAz86b2ZK-592">
          <mxGeometry x="-0.0498" y="1" relative="1" as="geometry">
            <mxPoint as="offset" />
          </mxGeometry>
        </mxCell>
        <mxCell id="Lp_xnb2QCeQAAz86b2ZK-594" value="" style="endArrow=classic;html=1;entryX=0.05;entryY=0.05;entryDx=0;entryDy=0;entryPerimeter=0;" edge="1" parent="1" target="Lp_xnb2QCeQAAz86b2ZK-586">
          <mxGeometry width="50" height="50" relative="1" as="geometry">
            <mxPoint x="401" y="1743" as="sourcePoint" />
            <mxPoint x="820" y="1750" as="targetPoint" />
          </mxGeometry>
        </mxCell>
        <mxCell id="Lp_xnb2QCeQAAz86b2ZK-595" value="item查询" style="edgeLabel;html=1;align=center;verticalAlign=middle;resizable=0;points=[];" vertex="1" connectable="0" parent="Lp_xnb2QCeQAAz86b2ZK-594">
          <mxGeometry x="-0.4272" y="-3" relative="1" as="geometry">
            <mxPoint as="offset" />
          </mxGeometry>
        </mxCell>
        <mxCell id="Lp_xnb2QCeQAAz86b2ZK-596" value="" style="endArrow=classic;html=1;exitX=0.95;exitY=0.05;exitDx=0;exitDy=0;exitPerimeter=0;" edge="1" parent="1" source="Lp_xnb2QCeQAAz86b2ZK-586">
          <mxGeometry width="50" height="50" relative="1" as="geometry">
            <mxPoint x="730" y="1840" as="sourcePoint" />
            <mxPoint x="1117" y="1743" as="targetPoint" />
          </mxGeometry>
        </mxCell>
        <mxCell id="Lp_xnb2QCeQAAz86b2ZK-597" value="查询mysql" style="edgeLabel;html=1;align=center;verticalAlign=middle;resizable=0;points=[];" vertex="1" connectable="0" parent="Lp_xnb2QCeQAAz86b2ZK-596">
          <mxGeometry x="-0.1478" relative="1" as="geometry">
            <mxPoint as="offset" />
          </mxGeometry>
        </mxCell>
        <mxCell id="Lp_xnb2QCeQAAz86b2ZK-598" value="redis" style="outlineConnect=0;dashed=0;verticalLabelPosition=bottom;verticalAlign=top;align=center;html=1;shape=mxgraph.aws3.rds_db_instance_read_replica;fillColor=#2E73B8;gradientColor=none;" vertex="1" parent="1">
          <mxGeometry x="729.25" y="1870" width="49.5" height="66" as="geometry" />
        </mxCell>
        <mxCell id="Lp_xnb2QCeQAAz86b2ZK-599" value="机器内存" style="outlineConnect=0;dashed=0;verticalLabelPosition=bottom;verticalAlign=top;align=center;html=1;shape=mxgraph.aws3.rds_db_instance;fillColor=#2E73B8;gradientColor=none;" vertex="1" parent="1">
          <mxGeometry x="735.25" y="2052" width="49.5" height="66" as="geometry" />
        </mxCell>
        <mxCell id="Lp_xnb2QCeQAAz86b2ZK-600" value="etcd" style="outlineConnect=0;dashed=0;verticalLabelPosition=bottom;verticalAlign=top;align=center;html=1;shape=mxgraph.aws3.db_accelerator;fillColor=#2E73B8;gradientColor=none;" vertex="1" parent="1">
          <mxGeometry x="718" y="2250" width="72" height="81" as="geometry" />
        </mxCell>
        <mxCell id="Lp_xnb2QCeQAAz86b2ZK-601" value="pika" style="outlineConnect=0;dashed=0;verticalLabelPosition=bottom;verticalAlign=top;align=center;html=1;shape=mxgraph.aws3.rds_db_instance_standby_multi_az;fillColor=#2E73B8;gradientColor=none;" vertex="1" parent="1">
          <mxGeometry x="729" y="1960" width="49.5" height="66" as="geometry" />
        </mxCell>
        <mxCell id="Lp_xnb2QCeQAAz86b2ZK-602" value="" style="endArrow=none;dashed=1;html=1;dashPattern=1 3;strokeWidth=2;" edge="1" parent="1">
          <mxGeometry width="50" height="50" relative="1" as="geometry">
            <mxPoint x="700" y="2150" as="sourcePoint" />
            <mxPoint x="700" y="1860" as="targetPoint" />
          </mxGeometry>
        </mxCell>
        <mxCell id="Lp_xnb2QCeQAAz86b2ZK-603" value="" style="endArrow=none;dashed=1;html=1;dashPattern=1 3;strokeWidth=2;" edge="1" parent="1">
          <mxGeometry width="50" height="50" relative="1" as="geometry">
            <mxPoint x="700" y="1860" as="sourcePoint" />
            <mxPoint x="820" y="1860" as="targetPoint" />
          </mxGeometry>
        </mxCell>
        <mxCell id="Lp_xnb2QCeQAAz86b2ZK-604" value="" style="endArrow=none;dashed=1;html=1;dashPattern=1 3;strokeWidth=2;" edge="1" parent="1">
          <mxGeometry width="50" height="50" relative="1" as="geometry">
            <mxPoint x="820" y="2150" as="sourcePoint" />
            <mxPoint x="820" y="1860" as="targetPoint" />
          </mxGeometry>
        </mxCell>
        <mxCell id="Lp_xnb2QCeQAAz86b2ZK-605" value="" style="endArrow=none;dashed=1;html=1;dashPattern=1 3;strokeWidth=2;" edge="1" parent="1">
          <mxGeometry width="50" height="50" relative="1" as="geometry">
            <mxPoint x="700" y="2150" as="sourcePoint" />
            <mxPoint x="820" y="2150" as="targetPoint" />
          </mxGeometry>
        </mxCell>
        <mxCell id="Lp_xnb2QCeQAAz86b2ZK-606" value="" style="endArrow=classic;html=1;exitX=1;exitY=0.296;exitDx=0;exitDy=0;exitPerimeter=0;" edge="1" parent="1" source="Lp_xnb2QCeQAAz86b2ZK-582">
          <mxGeometry x="-0.0007" y="-109" width="50" height="50" relative="1" as="geometry">
            <mxPoint x="730" y="2040" as="sourcePoint" />
            <mxPoint x="700" y="1901" as="targetPoint" />
            <mxPoint as="offset" />
          </mxGeometry>
        </mxCell>
        <mxCell id="Lp_xnb2QCeQAAz86b2ZK-607" value="同步setnx cache" style="edgeLabel;html=1;align=center;verticalAlign=middle;resizable=0;points=[];" vertex="1" connectable="0" parent="Lp_xnb2QCeQAAz86b2ZK-606">
          <mxGeometry x="-0.1533" y="-1" relative="1" as="geometry">
            <mxPoint as="offset" />
          </mxGeometry>
        </mxCell>
        <mxCell id="Lp_xnb2QCeQAAz86b2ZK-608" value="读cache" style="endArrow=classic;html=1;exitX=1;exitY=0.296;exitDx=0;exitDy=0;exitPerimeter=0;" edge="1" parent="1">
          <mxGeometry width="50" height="50" relative="1" as="geometry">
            <mxPoint x="400" y="1992.7799999999997" as="sourcePoint" />
            <mxPoint x="700" y="1992.5" as="targetPoint" />
          </mxGeometry>
        </mxCell>
        <mxCell id="Lp_xnb2QCeQAAz86b2ZK-609" value="" style="endArrow=classic;html=1;exitX=1;exitY=0.296;exitDx=0;exitDy=0;exitPerimeter=0;" edge="1" parent="1">
          <mxGeometry x="-0.1326" y="120" width="50" height="50" relative="1" as="geometry">
            <mxPoint x="400" y="2080.2799999999997" as="sourcePoint" />
            <mxPoint x="700" y="2080" as="targetPoint" />
            <mxPoint as="offset" />
          </mxGeometry>
        </mxCell>
        <mxCell id="Lp_xnb2QCeQAAz86b2ZK-610" value="同步set cache" style="edgeLabel;html=1;align=center;verticalAlign=middle;resizable=0;points=[];" vertex="1" connectable="0" parent="Lp_xnb2QCeQAAz86b2ZK-609">
          <mxGeometry x="-0.0733" y="4" relative="1" as="geometry">
            <mxPoint as="offset" />
          </mxGeometry>
        </mxCell>
        <mxCell id="Lp_xnb2QCeQAAz86b2ZK-611" value="" style="endArrow=classic;html=1;exitX=1.05;exitY=0.765;exitDx=0;exitDy=0;exitPerimeter=0;entryX=-0.15;entryY=0.762;entryDx=0;entryDy=0;entryPerimeter=0;" edge="1" parent="1" source="Lp_xnb2QCeQAAz86b2ZK-582" target="Lp_xnb2QCeQAAz86b2ZK-583">
          <mxGeometry width="50" height="50" relative="1" as="geometry">
            <mxPoint x="730" y="2200" as="sourcePoint" />
            <mxPoint x="780" y="2150" as="targetPoint" />
          </mxGeometry>
        </mxCell>
        <mxCell id="Lp_xnb2QCeQAAz86b2ZK-612" value="cache miss 读db" style="text;html=1;align=center;verticalAlign=middle;resizable=0;points=[];autosize=1;" vertex="1" parent="1">
          <mxGeometry x="704" y="2200" width="100" height="20" as="geometry" />
        </mxCell>
        <mxCell id="Lp_xnb2QCeQAAz86b2ZK-613" value="" style="endArrow=classic;html=1;exitX=1;exitY=0.296;exitDx=0;exitDy=0;exitPerimeter=0;entryX=-0.069;entryY=0.63;entryDx=0;entryDy=0;entryPerimeter=0;" edge="1" parent="1" target="Lp_xnb2QCeQAAz86b2ZK-600">
          <mxGeometry x="-0.1326" y="120" width="50" height="50" relative="1" as="geometry">
            <mxPoint x="400" y="2300.2799999999997" as="sourcePoint" />
            <mxPoint x="700" y="2300" as="targetPoint" />
            <mxPoint as="offset" />
          </mxGeometry>
        </mxCell>
        <mxCell id="Lp_xnb2QCeQAAz86b2ZK-614" value="服务注册发现" style="edgeLabel;html=1;align=center;verticalAlign=middle;resizable=0;points=[];" vertex="1" connectable="0" parent="Lp_xnb2QCeQAAz86b2ZK-613">
          <mxGeometry x="-0.0733" y="4" relative="1" as="geometry">
            <mxPoint as="offset" />
          </mxGeometry>
        </mxCell>
        <mxCell id="Lp_xnb2QCeQAAz86b2ZK-615" value="" style="edgeStyle=orthogonalEdgeStyle;rounded=0;orthogonalLoop=1;jettySize=auto;html=1;" edge="1" parent="1" source="Lp_xnb2QCeQAAz86b2ZK-616">
          <mxGeometry relative="1" as="geometry">
            <mxPoint x="740" y="2720" as="targetPoint" />
          </mxGeometry>
        </mxCell>
        <mxCell id="Lp_xnb2QCeQAAz86b2ZK-616" value="nginx总代理" style="whiteSpace=wrap;html=1;aspect=fixed;fillColor=#FF9CF5;" vertex="1" parent="1">
          <mxGeometry x="700" y="2590" width="80" height="80" as="geometry" />
        </mxCell>
        <mxCell id="Lp_xnb2QCeQAAz86b2ZK-617" value="admin后台" style="whiteSpace=wrap;html=1;aspect=fixed;fillColor=#E6E6E6;" vertex="1" parent="1">
          <mxGeometry x="440" y="2985" width="80" height="80" as="geometry" />
        </mxCell>
        <mxCell id="Lp_xnb2QCeQAAz86b2ZK-618" value="" style="edgeStyle=orthogonalEdgeStyle;rounded=0;orthogonalLoop=1;jettySize=auto;html=1;" edge="1" parent="1" source="Lp_xnb2QCeQAAz86b2ZK-620" target="Lp_xnb2QCeQAAz86b2ZK-662">
          <mxGeometry relative="1" as="geometry" />
        </mxCell>
        <mxCell id="Lp_xnb2QCeQAAz86b2ZK-619" value="grpc" style="edgeLabel;html=1;align=center;verticalAlign=middle;resizable=0;points=[];" vertex="1" connectable="0" parent="Lp_xnb2QCeQAAz86b2ZK-618">
          <mxGeometry x="-0.1273" y="-1" relative="1" as="geometry">
            <mxPoint as="offset" />
          </mxGeometry>
        </mxCell>
        <mxCell id="Lp_xnb2QCeQAAz86b2ZK-620" value="go api_server" style="whiteSpace=wrap;html=1;aspect=fixed;fillColor=#A6E1FF;" vertex="1" parent="1">
          <mxGeometry x="560" y="2985" width="80" height="80" as="geometry" />
        </mxCell>
        <mxCell id="Lp_xnb2QCeQAAz86b2ZK-621" value="php 服务" style="whiteSpace=wrap;html=1;aspect=fixed;fillColor=#F5FFCF;" vertex="1" parent="1">
          <mxGeometry x="689" y="2985" width="80" height="80" as="geometry" />
        </mxCell>
        <mxCell id="Lp_xnb2QCeQAAz86b2ZK-622" value="文件服务" style="whiteSpace=wrap;html=1;aspect=fixed;fillColor=#FFC38F;" vertex="1" parent="1">
          <mxGeometry x="800" y="2985" width="80" height="80" as="geometry" />
        </mxCell>
        <mxCell id="Lp_xnb2QCeQAAz86b2ZK-623" value="go ssr 服务" style="whiteSpace=wrap;html=1;aspect=fixed;fillColor=#FF9CF5;" vertex="1" parent="1">
          <mxGeometry x="920" y="2985" width="80" height="80" as="geometry" />
        </mxCell>
        <mxCell id="Lp_xnb2QCeQAAz86b2ZK-624" value="" style="outlineConnect=0;dashed=0;verticalLabelPosition=bottom;verticalAlign=top;align=center;html=1;shape=mxgraph.aws3.ecr_registry;fillColor=#F58534;gradientColor=none;" vertex="1" parent="1">
          <mxGeometry x="500.5" y="2760" width="57" height="60" as="geometry" />
        </mxCell>
        <mxCell id="Lp_xnb2QCeQAAz86b2ZK-625" value="" style="outlineConnect=0;dashed=0;verticalLabelPosition=bottom;verticalAlign=top;align=center;html=1;shape=mxgraph.aws3.ecr_registry;fillColor=#F58534;gradientColor=none;" vertex="1" parent="1">
          <mxGeometry x="900.5" y="2760" width="57" height="60" as="geometry" />
        </mxCell>
        <mxCell id="Lp_xnb2QCeQAAz86b2ZK-626" value="" style="outlineConnect=0;dashed=0;verticalLabelPosition=bottom;verticalAlign=top;align=center;html=1;shape=mxgraph.aws3.ecr_registry;fillColor=#F58534;gradientColor=none;" vertex="1" parent="1">
          <mxGeometry x="820.5" y="2760" width="57" height="60" as="geometry" />
        </mxCell>
        <mxCell id="Lp_xnb2QCeQAAz86b2ZK-627" value="" style="outlineConnect=0;dashed=0;verticalLabelPosition=bottom;verticalAlign=top;align=center;html=1;shape=mxgraph.aws3.ecr_registry;fillColor=#F58534;gradientColor=none;" vertex="1" parent="1">
          <mxGeometry x="580.5" y="2760" width="57" height="60" as="geometry" />
        </mxCell>
        <mxCell id="Lp_xnb2QCeQAAz86b2ZK-628" value="" style="outlineConnect=0;dashed=0;verticalLabelPosition=bottom;verticalAlign=top;align=center;html=1;shape=mxgraph.aws3.ecr_registry;fillColor=#F58534;gradientColor=none;" vertex="1" parent="1">
          <mxGeometry x="662" y="2760" width="57" height="60" as="geometry" />
        </mxCell>
        <mxCell id="Lp_xnb2QCeQAAz86b2ZK-629" value="" style="outlineConnect=0;dashed=0;verticalLabelPosition=bottom;verticalAlign=top;align=center;html=1;shape=mxgraph.aws3.ecr_registry;fillColor=#F58534;gradientColor=none;" vertex="1" parent="1">
          <mxGeometry x="740.5" y="2760" width="57" height="60" as="geometry" />
        </mxCell>
        <mxCell id="Lp_xnb2QCeQAAz86b2ZK-630" value="" style="endArrow=none;dashed=1;html=1;dashPattern=1 3;strokeWidth=2;" edge="1" parent="1">
          <mxGeometry width="50" height="50" relative="1" as="geometry">
            <mxPoint x="460" y="2720" as="sourcePoint" />
            <mxPoint x="1020" y="2720" as="targetPoint" />
          </mxGeometry>
        </mxCell>
        <mxCell id="Lp_xnb2QCeQAAz86b2ZK-631" value="" style="endArrow=none;dashed=1;html=1;dashPattern=1 3;strokeWidth=2;" edge="1" parent="1">
          <mxGeometry width="50" height="50" relative="1" as="geometry">
            <mxPoint x="1020" y="2840" as="sourcePoint" />
            <mxPoint x="1020" y="2720" as="targetPoint" />
          </mxGeometry>
        </mxCell>
        <mxCell id="Lp_xnb2QCeQAAz86b2ZK-632" value="" style="endArrow=none;dashed=1;html=1;dashPattern=1 3;strokeWidth=2;" edge="1" parent="1">
          <mxGeometry width="50" height="50" relative="1" as="geometry">
            <mxPoint x="460" y="2840" as="sourcePoint" />
            <mxPoint x="1020" y="2840" as="targetPoint" />
          </mxGeometry>
        </mxCell>
        <mxCell id="Lp_xnb2QCeQAAz86b2ZK-633" value="" style="endArrow=none;dashed=1;html=1;dashPattern=1 3;strokeWidth=2;" edge="1" parent="1">
          <mxGeometry width="50" height="50" relative="1" as="geometry">
            <mxPoint x="460" y="2840" as="sourcePoint" />
            <mxPoint x="460" y="2720" as="targetPoint" />
          </mxGeometry>
        </mxCell>
        <mxCell id="Lp_xnb2QCeQAAz86b2ZK-634" value="" style="endArrow=none;dashed=1;html=1;dashPattern=1 3;strokeWidth=2;" edge="1" parent="1">
          <mxGeometry width="50" height="50" relative="1" as="geometry">
            <mxPoint x="459.5" y="2420" as="sourcePoint" />
            <mxPoint x="1019.5" y="2420" as="targetPoint" />
          </mxGeometry>
        </mxCell>
        <mxCell id="Lp_xnb2QCeQAAz86b2ZK-635" value="" style="endArrow=none;dashed=1;html=1;dashPattern=1 3;strokeWidth=2;" edge="1" parent="1">
          <mxGeometry width="50" height="50" relative="1" as="geometry">
            <mxPoint x="1020" y="2560" as="sourcePoint" />
            <mxPoint x="1019.5" y="2420" as="targetPoint" />
          </mxGeometry>
        </mxCell>
        <mxCell id="Lp_xnb2QCeQAAz86b2ZK-636" value="" style="endArrow=none;dashed=1;html=1;dashPattern=1 3;strokeWidth=2;" edge="1" parent="1">
          <mxGeometry width="50" height="50" relative="1" as="geometry">
            <mxPoint x="460" y="2560" as="sourcePoint" />
            <mxPoint x="1020" y="2560" as="targetPoint" />
          </mxGeometry>
        </mxCell>
        <mxCell id="Lp_xnb2QCeQAAz86b2ZK-637" value="" style="endArrow=none;dashed=1;html=1;dashPattern=1 3;strokeWidth=2;" edge="1" parent="1">
          <mxGeometry width="50" height="50" relative="1" as="geometry">
            <mxPoint x="460" y="2560" as="sourcePoint" />
            <mxPoint x="459.5" y="2420" as="targetPoint" />
          </mxGeometry>
        </mxCell>
        <mxCell id="Lp_xnb2QCeQAAz86b2ZK-638" value="异&lt;br&gt;步&lt;br&gt;任&lt;br&gt;务" style="rounded=0;whiteSpace=wrap;html=1;fillColor=#CFCFCF;" vertex="1" parent="1">
          <mxGeometry x="470" y="2460" width="40" height="80" as="geometry" />
        </mxCell>
        <mxCell id="Lp_xnb2QCeQAAz86b2ZK-639" value="定&lt;br&gt;时&lt;br&gt;任&lt;br&gt;务" style="rounded=0;whiteSpace=wrap;html=1;fillColor=#CFCFCF;" vertex="1" parent="1">
          <mxGeometry x="530" y="2460" width="40" height="80" as="geometry" />
        </mxCell>
        <mxCell id="Lp_xnb2QCeQAAz86b2ZK-640" value="..." style="text;html=1;align=center;verticalAlign=middle;resizable=0;points=[];autosize=1;" vertex="1" parent="1">
          <mxGeometry x="570" y="2480" width="30" height="20" as="geometry" />
        </mxCell>
        <mxCell id="Lp_xnb2QCeQAAz86b2ZK-641" value="运&lt;br&gt;营&lt;br&gt;工&lt;br&gt;具" style="rounded=0;whiteSpace=wrap;html=1;fillColor=#A6E1FF;" vertex="1" parent="1">
          <mxGeometry x="610" y="2460" width="40" height="80" as="geometry" />
        </mxCell>
        <mxCell id="Lp_xnb2QCeQAAz86b2ZK-642" value="效&lt;br&gt;率&lt;br&gt;工&lt;br&gt;具" style="rounded=0;whiteSpace=wrap;html=1;fillColor=#A6E1FF;" vertex="1" parent="1">
          <mxGeometry x="661.5" y="2460" width="40" height="80" as="geometry" />
        </mxCell>
        <mxCell id="Lp_xnb2QCeQAAz86b2ZK-643" value="..." style="text;html=1;align=center;verticalAlign=middle;resizable=0;points=[];autosize=1;" vertex="1" parent="1">
          <mxGeometry x="714" y="2480" width="30" height="20" as="geometry" />
        </mxCell>
        <mxCell id="Lp_xnb2QCeQAAz86b2ZK-644" value="C&lt;br&gt;用&lt;br&gt;户" style="rounded=0;whiteSpace=wrap;html=1;fillColor=#F5FFCF;" vertex="1" parent="1">
          <mxGeometry x="748.5" y="2460" width="40" height="80" as="geometry" />
        </mxCell>
        <mxCell id="Lp_xnb2QCeQAAz86b2ZK-645" value="B&lt;br&gt;用&lt;br&gt;户" style="rounded=0;whiteSpace=wrap;html=1;fillColor=#F5FFCF;" vertex="1" parent="1">
          <mxGeometry x="800" y="2460" width="40" height="80" as="geometry" />
        </mxCell>
        <mxCell id="Lp_xnb2QCeQAAz86b2ZK-646" value="地&lt;br&gt;推&lt;br&gt;人&lt;br&gt;员" style="rounded=0;whiteSpace=wrap;html=1;fillColor=#FFC38F;" vertex="1" parent="1">
          <mxGeometry x="890" y="2460" width="40" height="80" as="geometry" />
        </mxCell>
        <mxCell id="Lp_xnb2QCeQAAz86b2ZK-647" value="&lt;font style=&quot;font-size: 17px&quot;&gt;Client&lt;/font&gt;" style="text;html=1;align=center;verticalAlign=middle;resizable=0;points=[];autosize=1;" vertex="1" parent="1">
          <mxGeometry x="460" y="2420" width="60" height="20" as="geometry" />
        </mxCell>
        <mxCell id="Lp_xnb2QCeQAAz86b2ZK-648" value="..." style="text;html=1;align=center;verticalAlign=middle;resizable=0;points=[];autosize=1;" vertex="1" parent="1">
          <mxGeometry x="847" y="2490" width="30" height="20" as="geometry" />
        </mxCell>
        <mxCell id="Lp_xnb2QCeQAAz86b2ZK-649" value="电&lt;br&gt;销&lt;br&gt;人&lt;br&gt;员" style="rounded=0;whiteSpace=wrap;html=1;fillColor=#FFC38F;" vertex="1" parent="1">
          <mxGeometry x="940" y="2460" width="40" height="80" as="geometry" />
        </mxCell>
        <mxCell id="Lp_xnb2QCeQAAz86b2ZK-650" value="" style="endArrow=classic;html=1;entryX=0.5;entryY=0;entryDx=0;entryDy=0;" edge="1" parent="1" target="Lp_xnb2QCeQAAz86b2ZK-616">
          <mxGeometry width="50" height="50" relative="1" as="geometry">
            <mxPoint x="740" y="2560" as="sourcePoint" />
            <mxPoint x="750" y="2520" as="targetPoint" />
          </mxGeometry>
        </mxCell>
        <mxCell id="Lp_xnb2QCeQAAz86b2ZK-651" value="&lt;font style=&quot;font-size: 17px&quot;&gt;负载均衡nginx集群&lt;/font&gt;" style="text;html=1;align=center;verticalAlign=middle;resizable=0;points=[];autosize=1;" vertex="1" parent="1">
          <mxGeometry x="460" y="2730" width="160" height="20" as="geometry" />
        </mxCell>
        <mxCell id="Lp_xnb2QCeQAAz86b2ZK-652" value="" style="endArrow=classic;html=1;entryX=0.5;entryY=0;entryDx=0;entryDy=0;" edge="1" parent="1" target="Lp_xnb2QCeQAAz86b2ZK-621">
          <mxGeometry width="50" height="50" relative="1" as="geometry">
            <mxPoint x="730" y="2840" as="sourcePoint" />
            <mxPoint x="734" y="2970" as="targetPoint" />
          </mxGeometry>
        </mxCell>
        <mxCell id="Lp_xnb2QCeQAAz86b2ZK-653" value="80、443" style="edgeLabel;html=1;align=center;verticalAlign=middle;resizable=0;points=[];" vertex="1" connectable="0" parent="Lp_xnb2QCeQAAz86b2ZK-652">
          <mxGeometry x="-0.0758" y="-1" relative="1" as="geometry">
            <mxPoint x="0.46" y="33.01" as="offset" />
          </mxGeometry>
        </mxCell>
        <mxCell id="Lp_xnb2QCeQAAz86b2ZK-654" value="" style="endArrow=classic;html=1;entryX=0.5;entryY=0;entryDx=0;entryDy=0;" edge="1" parent="1" target="Lp_xnb2QCeQAAz86b2ZK-617">
          <mxGeometry width="50" height="50" relative="1" as="geometry">
            <mxPoint x="480" y="2840" as="sourcePoint" />
            <mxPoint x="750" y="2870" as="targetPoint" />
          </mxGeometry>
        </mxCell>
        <mxCell id="Lp_xnb2QCeQAAz86b2ZK-655" value="admin.olist.ng:80/443" style="edgeLabel;html=1;align=center;verticalAlign=middle;resizable=0;points=[];" vertex="1" connectable="0" parent="Lp_xnb2QCeQAAz86b2ZK-654">
          <mxGeometry x="-0.4207" y="-2" relative="1" as="geometry">
            <mxPoint x="2" y="18" as="offset" />
          </mxGeometry>
        </mxCell>
        <mxCell id="Lp_xnb2QCeQAAz86b2ZK-656" value="" style="endArrow=classic;html=1;entryX=0.5;entryY=0;entryDx=0;entryDy=0;" edge="1" parent="1" target="Lp_xnb2QCeQAAz86b2ZK-620">
          <mxGeometry width="50" height="50" relative="1" as="geometry">
            <mxPoint x="730" y="2900" as="sourcePoint" />
            <mxPoint x="750" y="2950" as="targetPoint" />
            <Array as="points">
              <mxPoint x="600" y="2900" />
            </Array>
          </mxGeometry>
        </mxCell>
        <mxCell id="Lp_xnb2QCeQAAz86b2ZK-657" value="location ～go/api" style="edgeLabel;html=1;align=center;verticalAlign=middle;resizable=0;points=[];" vertex="1" connectable="0" parent="Lp_xnb2QCeQAAz86b2ZK-656">
          <mxGeometry x="-0.0419" y="1" relative="1" as="geometry">
            <mxPoint as="offset" />
          </mxGeometry>
        </mxCell>
        <mxCell id="Lp_xnb2QCeQAAz86b2ZK-658" value="" style="endArrow=classic;html=1;entryX=0.5;entryY=0;entryDx=0;entryDy=0;" edge="1" parent="1" target="Lp_xnb2QCeQAAz86b2ZK-622">
          <mxGeometry width="50" height="50" relative="1" as="geometry">
            <mxPoint x="730" y="2900" as="sourcePoint" />
            <mxPoint x="750" y="2890" as="targetPoint" />
            <Array as="points">
              <mxPoint x="840" y="2900" />
            </Array>
          </mxGeometry>
        </mxCell>
        <mxCell id="Lp_xnb2QCeQAAz86b2ZK-659" value="location~attachemnt" style="edgeLabel;html=1;align=center;verticalAlign=middle;resizable=0;points=[];" vertex="1" connectable="0" parent="Lp_xnb2QCeQAAz86b2ZK-658">
          <mxGeometry x="-0.5795" y="-2" relative="1" as="geometry">
            <mxPoint x="17.5" y="-12" as="offset" />
          </mxGeometry>
        </mxCell>
        <mxCell id="Lp_xnb2QCeQAAz86b2ZK-660" value="" style="endArrow=classic;html=1;entryX=0.5;entryY=0;entryDx=0;entryDy=0;" edge="1" parent="1" target="Lp_xnb2QCeQAAz86b2ZK-623">
          <mxGeometry width="50" height="50" relative="1" as="geometry">
            <mxPoint x="960" y="2840" as="sourcePoint" />
            <mxPoint x="750" y="2890" as="targetPoint" />
            <Array as="points">
              <mxPoint x="960" y="2900" />
            </Array>
          </mxGeometry>
        </mxCell>
        <mxCell id="Lp_xnb2QCeQAAz86b2ZK-661" value="ssr" style="edgeLabel;html=1;align=center;verticalAlign=middle;resizable=0;points=[];" vertex="1" connectable="0" parent="Lp_xnb2QCeQAAz86b2ZK-660">
          <mxGeometry x="-0.522" y="1" relative="1" as="geometry">
            <mxPoint x="-1" y="35" as="offset" />
          </mxGeometry>
        </mxCell>
        <mxCell id="Lp_xnb2QCeQAAz86b2ZK-662" value="car、community、conf、credit、item、job、mail、message、misc、oplace、payment、seo、sms、stat、user、vip、wapforum...server" style="whiteSpace=wrap;html=1;fillColor=#61FF66;" vertex="1" parent="1">
          <mxGeometry x="420" y="3120" width="600" height="30" as="geometry" />
        </mxCell>
        <mxCell id="Lp_xnb2QCeQAAz86b2ZK-663" value="Olist后端架构图" style="swimlane;html=1;childLayout=stackLayout;resizeParent=1;resizeParentMax=0;horizontal=1;startSize=20;horizontalStack=0;" vertex="1" parent="1">
          <mxGeometry x="460" y="3190" width="480" height="380" as="geometry" />
        </mxCell>
        <mxCell id="Lp_xnb2QCeQAAz86b2ZK-664" value="接入终端" style="swimlane;html=1;startSize=20;horizontal=0;fillColor=#C2DEFF;" vertex="1" parent="Lp_xnb2QCeQAAz86b2ZK-663">
          <mxGeometry y="20" width="480" height="80" as="geometry" />
        </mxCell>
        <mxCell id="Lp_xnb2QCeQAAz86b2ZK-665" value="PC" style="image;html=1;image=img/lib/clip_art/computers/Laptop_128x128.png" vertex="1" parent="Lp_xnb2QCeQAAz86b2ZK-664">
          <mxGeometry x="90" width="60" height="50" as="geometry" />
        </mxCell>
        <mxCell id="Lp_xnb2QCeQAAz86b2ZK-666" value="" style="verticalLabelPosition=bottom;verticalAlign=top;html=1;shadow=0;dashed=0;strokeWidth=1;shape=mxgraph.android.phone2;strokeColor=#1A1A1A;fillColor=#1A1A1A;" vertex="1" parent="Lp_xnb2QCeQAAz86b2ZK-664">
          <mxGeometry x="210" width="20" height="50" as="geometry" />
        </mxCell>
        <mxCell id="Lp_xnb2QCeQAAz86b2ZK-667" value="&lt;span&gt;移动终端&lt;/span&gt;" style="verticalLabelPosition=bottom;verticalAlign=top;html=1;shadow=0;dashed=0;strokeWidth=1;shape=mxgraph.android.tab2;strokeColor=#c0c0c0;direction=north;fillColor=#1A1A1A;" vertex="1" parent="Lp_xnb2QCeQAAz86b2ZK-664">
          <mxGeometry x="229" y="10" width="50" height="40" as="geometry" />
        </mxCell>
        <mxCell id="Lp_xnb2QCeQAAz86b2ZK-668" value="第三方服务" style="html=1;verticalLabelPosition=bottom;align=center;labelBackgroundColor=#ffffff;verticalAlign=top;strokeWidth=2;shadow=0;dashed=0;shape=mxgraph.ios7.icons.briefcase;fillColor=#FFFFFF;strokeColor=#1A1A1A;" vertex="1" parent="Lp_xnb2QCeQAAz86b2ZK-664">
          <mxGeometry x="350" y="10" width="70" height="40.05" as="geometry" />
        </mxCell>
        <mxCell id="Lp_xnb2QCeQAAz86b2ZK-669" value="用户层" style="swimlane;html=1;startSize=20;horizontal=0;fillColor=#89BFFF;" vertex="1" parent="Lp_xnb2QCeQAAz86b2ZK-663">
          <mxGeometry y="100" width="480" height="80" as="geometry" />
        </mxCell>
        <mxCell id="Lp_xnb2QCeQAAz86b2ZK-670" value="PC" style="whiteSpace=wrap;html=1;fillColor=#89BFFF;" vertex="1" parent="Lp_xnb2QCeQAAz86b2ZK-669">
          <mxGeometry x="50" y="20" width="50" height="40" as="geometry" />
        </mxCell>
        <mxCell id="Lp_xnb2QCeQAAz86b2ZK-671" value="h5" style="whiteSpace=wrap;html=1;fillColor=#89BFFF;" vertex="1" parent="Lp_xnb2QCeQAAz86b2ZK-669">
          <mxGeometry x="140" y="20" width="50" height="40" as="geometry" />
        </mxCell>
        <mxCell id="Lp_xnb2QCeQAAz86b2ZK-672" value="android" style="whiteSpace=wrap;html=1;fillColor=#89BFFF;" vertex="1" parent="Lp_xnb2QCeQAAz86b2ZK-669">
          <mxGeometry x="400" y="20" width="50" height="40" as="geometry" />
        </mxCell>
        <mxCell id="Lp_xnb2QCeQAAz86b2ZK-673" value="ios" style="whiteSpace=wrap;html=1;fillColor=#89BFFF;" vertex="1" parent="Lp_xnb2QCeQAAz86b2ZK-669">
          <mxGeometry x="310" y="20" width="50" height="40" as="geometry" />
        </mxCell>
        <mxCell id="Lp_xnb2QCeQAAz86b2ZK-674" value="wap" style="whiteSpace=wrap;html=1;fillColor=#89BFFF;" vertex="1" parent="Lp_xnb2QCeQAAz86b2ZK-669">
          <mxGeometry x="228.5" y="20" width="50" height="40" as="geometry" />
        </mxCell>
        <mxCell id="Lp_xnb2QCeQAAz86b2ZK-675" value="接入层" style="swimlane;html=1;startSize=20;horizontal=0;fillColor=#FEBFC1;" vertex="1" parent="Lp_xnb2QCeQAAz86b2ZK-663">
          <mxGeometry y="180" width="480" height="200" as="geometry" />
        </mxCell>
        <mxCell id="Lp_xnb2QCeQAAz86b2ZK-676" value="Nginx负载均衡" style="whiteSpace=wrap;html=1;fillColor=#FEBFC1;" vertex="1" parent="Lp_xnb2QCeQAAz86b2ZK-675">
          <mxGeometry x="80" y="70" width="330" height="40" as="geometry" />
        </mxCell>
        <mxCell id="Lp_xnb2QCeQAAz86b2ZK-677" value="" style="endArrow=classic;html=1;entryX=0.476;entryY=0.025;entryDx=0;entryDy=0;entryPerimeter=0;" edge="1" parent="Lp_xnb2QCeQAAz86b2ZK-675" target="Lp_xnb2QCeQAAz86b2ZK-676">
          <mxGeometry width="50" height="50" relative="1" as="geometry">
            <mxPoint x="237" y="40" as="sourcePoint" />
            <mxPoint x="237" y="65" as="targetPoint" />
          </mxGeometry>
        </mxCell>
        <mxCell id="Lp_xnb2QCeQAAz86b2ZK-678" value="" style="endArrow=none;html=1;" edge="1" parent="Lp_xnb2QCeQAAz86b2ZK-675">
          <mxGeometry width="50" height="50" relative="1" as="geometry">
            <mxPoint x="74" y="40" as="sourcePoint" />
            <mxPoint x="434" y="40" as="targetPoint" />
          </mxGeometry>
        </mxCell>
        <mxCell id="Lp_xnb2QCeQAAz86b2ZK-679" value="http" style="edgeLabel;html=1;align=center;verticalAlign=middle;resizable=0;points=[];" vertex="1" connectable="0" parent="Lp_xnb2QCeQAAz86b2ZK-678">
          <mxGeometry x="-0.5667" y="4" relative="1" as="geometry">
            <mxPoint as="offset" />
          </mxGeometry>
        </mxCell>
        <mxCell id="Lp_xnb2QCeQAAz86b2ZK-680" value="http" style="edgeLabel;html=1;align=center;verticalAlign=middle;resizable=0;points=[];" vertex="1" connectable="0" parent="Lp_xnb2QCeQAAz86b2ZK-678">
          <mxGeometry x="0.3944" y="2" relative="1" as="geometry">
            <mxPoint as="offset" />
          </mxGeometry>
        </mxCell>
        <mxCell id="Lp_xnb2QCeQAAz86b2ZK-681" value="API" style="whiteSpace=wrap;html=1;fillColor=#FEBFC1;" vertex="1" parent="Lp_xnb2QCeQAAz86b2ZK-675">
          <mxGeometry x="75" y="140" width="85" height="40" as="geometry" />
        </mxCell>
        <mxCell id="Lp_xnb2QCeQAAz86b2ZK-682" value="GRPC" style="whiteSpace=wrap;html=1;fillColor=#FEBFC1;" vertex="1" parent="Lp_xnb2QCeQAAz86b2ZK-675">
          <mxGeometry x="360" y="140" width="85" height="40" as="geometry" />
        </mxCell>
        <mxCell id="Lp_xnb2QCeQAAz86b2ZK-683" value="HTTP" style="whiteSpace=wrap;html=1;fillColor=#FEBFC1;" vertex="1" parent="Lp_xnb2QCeQAAz86b2ZK-675">
          <mxGeometry x="220" y="140" width="85" height="40" as="geometry" />
        </mxCell>
        <mxCell id="Lp_xnb2QCeQAAz86b2ZK-684" value="" style="endArrow=classic;html=1;exitX=0.118;exitY=1;exitDx=0;exitDy=0;exitPerimeter=0;" edge="1" parent="Lp_xnb2QCeQAAz86b2ZK-675" source="Lp_xnb2QCeQAAz86b2ZK-676">
          <mxGeometry width="50" height="50" relative="1" as="geometry">
            <mxPoint x="247" y="50" as="sourcePoint" />
            <mxPoint x="119" y="138" as="targetPoint" />
          </mxGeometry>
        </mxCell>
        <mxCell id="Lp_xnb2QCeQAAz86b2ZK-685" value="" style="endArrow=classic;html=1;" edge="1" parent="Lp_xnb2QCeQAAz86b2ZK-675">
          <mxGeometry width="50" height="50" relative="1" as="geometry">
            <mxPoint x="403" y="110" as="sourcePoint" />
            <mxPoint x="403" y="140" as="targetPoint" />
          </mxGeometry>
        </mxCell>
        <mxCell id="Lp_xnb2QCeQAAz86b2ZK-686" value="服务层" style="swimlane;html=1;startSize=20;horizontal=0;fillColor=#569FFE;" vertex="1" parent="1">
          <mxGeometry x="460" y="3570" width="480" height="300" as="geometry" />
        </mxCell>
        <mxCell id="Lp_xnb2QCeQAAz86b2ZK-687" value="负载均衡集群" style="swimlane;fontStyle=0;childLayout=stackLayout;horizontal=1;startSize=26;fillColor=#89BFFF;horizontalStack=0;resizeParent=1;resizeParentMax=0;resizeLast=0;collapsible=1;marginBottom=0;" vertex="1" parent="Lp_xnb2QCeQAAz86b2ZK-686">
          <mxGeometry x="40" y="20" width="140" height="104" as="geometry" />
        </mxCell>
        <mxCell id="Lp_xnb2QCeQAAz86b2ZK-688" value="REST API     REST API" style="text;strokeColor=none;fillColor=#89BFFF;align=left;verticalAlign=top;spacingLeft=4;spacingRight=4;overflow=hidden;rotatable=0;points=[[0,0.5],[1,0.5]];portConstraint=eastwest;" vertex="1" parent="Lp_xnb2QCeQAAz86b2ZK-687">
          <mxGeometry y="26" width="140" height="26" as="geometry" />
        </mxCell>
        <mxCell id="Lp_xnb2QCeQAAz86b2ZK-689" value="服务调用        服务调用" style="text;strokeColor=none;fillColor=#89BFFF;align=left;verticalAlign=top;spacingLeft=4;spacingRight=4;overflow=hidden;rotatable=0;points=[[0,0.5],[1,0.5]];portConstraint=eastwest;" vertex="1" parent="Lp_xnb2QCeQAAz86b2ZK-687">
          <mxGeometry y="52" width="140" height="26" as="geometry" />
        </mxCell>
        <mxCell id="Lp_xnb2QCeQAAz86b2ZK-690" value="公共库           公共库&#xa; " style="text;strokeColor=none;fillColor=#5587C2;align=left;verticalAlign=top;spacingLeft=4;spacingRight=4;overflow=hidden;rotatable=0;points=[[0,0.5],[1,0.5]];portConstraint=eastwest;" vertex="1" parent="Lp_xnb2QCeQAAz86b2ZK-687">
          <mxGeometry y="78" width="140" height="26" as="geometry" />
        </mxCell>
        <mxCell id="Lp_xnb2QCeQAAz86b2ZK-691" value="调度任务" style="swimlane;fontStyle=0;childLayout=stackLayout;horizontal=1;startSize=26;fillColor=#89BFFF;horizontalStack=0;resizeParent=1;resizeParentMax=0;resizeLast=0;collapsible=1;marginBottom=0;" vertex="1" parent="Lp_xnb2QCeQAAz86b2ZK-686">
          <mxGeometry x="200" y="20" width="140" height="104" as="geometry" />
        </mxCell>
        <mxCell id="Lp_xnb2QCeQAAz86b2ZK-692" value="Laravel Cron  Air Flow" style="text;strokeColor=none;fillColor=#89BFFF;align=left;verticalAlign=top;spacingLeft=4;spacingRight=4;overflow=hidden;rotatable=0;points=[[0,0.5],[1,0.5]];portConstraint=eastwest;" vertex="1" parent="Lp_xnb2QCeQAAz86b2ZK-691">
          <mxGeometry y="26" width="140" height="26" as="geometry" />
        </mxCell>
        <mxCell id="Lp_xnb2QCeQAAz86b2ZK-693" value="服务调用        服务调用" style="text;strokeColor=none;fillColor=#89BFFF;align=left;verticalAlign=top;spacingLeft=4;spacingRight=4;overflow=hidden;rotatable=0;points=[[0,0.5],[1,0.5]];portConstraint=eastwest;" vertex="1" parent="Lp_xnb2QCeQAAz86b2ZK-691">
          <mxGeometry y="52" width="140" height="26" as="geometry" />
        </mxCell>
        <mxCell id="Lp_xnb2QCeQAAz86b2ZK-694" value="公共库           公共库&#xa; " style="text;strokeColor=none;fillColor=#5587C2;align=left;verticalAlign=top;spacingLeft=4;spacingRight=4;overflow=hidden;rotatable=0;points=[[0,0.5],[1,0.5]];portConstraint=eastwest;" vertex="1" parent="Lp_xnb2QCeQAAz86b2ZK-691">
          <mxGeometry y="78" width="140" height="26" as="geometry" />
        </mxCell>
        <mxCell id="Lp_xnb2QCeQAAz86b2ZK-695" value="业务服务模块" style="swimlane;fontStyle=0;childLayout=stackLayout;horizontal=1;startSize=26;fillColor=#89BFFF;horizontalStack=0;resizeParent=1;resizeParentMax=0;resizeLast=0;collapsible=1;marginBottom=0;" vertex="1" parent="Lp_xnb2QCeQAAz86b2ZK-686">
          <mxGeometry x="40" y="175" width="300" height="104" as="geometry" />
        </mxCell>
        <mxCell id="Lp_xnb2QCeQAAz86b2ZK-696" value="REST API     laravel admin    api server    micro server" style="text;strokeColor=none;fillColor=#2A82FF;align=left;verticalAlign=top;spacingLeft=4;spacingRight=4;overflow=hidden;rotatable=0;points=[[0,0.5],[1,0.5]];portConstraint=eastwest;" vertex="1" parent="Lp_xnb2QCeQAAz86b2ZK-695">
          <mxGeometry y="26" width="300" height="26" as="geometry" />
        </mxCell>
        <mxCell id="Lp_xnb2QCeQAAz86b2ZK-697" value="服务调用        服务调用         服务调用        服务调用&#xa; " style="text;strokeColor=none;fillColor=#2A82FF;align=left;verticalAlign=top;spacingLeft=4;spacingRight=4;overflow=hidden;rotatable=0;points=[[0,0.5],[1,0.5]];portConstraint=eastwest;" vertex="1" parent="Lp_xnb2QCeQAAz86b2ZK-695">
          <mxGeometry y="52" width="300" height="26" as="geometry" />
        </mxCell>
        <mxCell id="Lp_xnb2QCeQAAz86b2ZK-698" value="公共库           公共库             公共库           公共库" style="text;strokeColor=none;fillColor=#0950C2;align=left;verticalAlign=top;spacingLeft=4;spacingRight=4;overflow=hidden;rotatable=0;points=[[0,0.5],[1,0.5]];portConstraint=eastwest;" vertex="1" parent="Lp_xnb2QCeQAAz86b2ZK-695">
          <mxGeometry y="78" width="300" height="26" as="geometry" />
        </mxCell>
        <mxCell id="Lp_xnb2QCeQAAz86b2ZK-699" value="公共组件" style="swimlane;fontStyle=0;childLayout=stackLayout;horizontal=1;startSize=26;fillColor=#C2DEFF;horizontalStack=0;resizeParent=1;resizeParentMax=0;resizeLast=0;collapsible=1;marginBottom=0;" vertex="1" parent="Lp_xnb2QCeQAAz86b2ZK-686">
          <mxGeometry x="350" y="20" width="120" height="260" as="geometry" />
        </mxCell>
        <mxCell id="Lp_xnb2QCeQAAz86b2ZK-700" value="配置管理  资源管理" style="text;strokeColor=none;fillColor=#FDA353;align=left;verticalAlign=top;spacingLeft=4;spacingRight=4;overflow=hidden;rotatable=0;points=[[0,0.5],[1,0.5]];portConstraint=eastwest;" vertex="1" parent="Lp_xnb2QCeQAAz86b2ZK-699">
          <mxGeometry y="26" width="120" height="26" as="geometry" />
        </mxCell>
        <mxCell id="Lp_xnb2QCeQAAz86b2ZK-701" value="数据统计  站内通知" style="text;strokeColor=none;fillColor=#FDA353;align=left;verticalAlign=top;spacingLeft=4;spacingRight=4;overflow=hidden;rotatable=0;points=[[0,0.5],[1,0.5]];portConstraint=eastwest;" vertex="1" parent="Lp_xnb2QCeQAAz86b2ZK-699">
          <mxGeometry y="52" width="120" height="26" as="geometry" />
        </mxCell>
        <mxCell id="Lp_xnb2QCeQAAz86b2ZK-702" value="短信通知  邮件通知" style="text;strokeColor=none;fillColor=#FDA353;align=left;verticalAlign=top;spacingLeft=4;spacingRight=4;overflow=hidden;rotatable=0;points=[[0,0.5],[1,0.5]];portConstraint=eastwest;" vertex="1" parent="Lp_xnb2QCeQAAz86b2ZK-699">
          <mxGeometry y="78" width="120" height="26" as="geometry" />
        </mxCell>
        <mxCell id="Lp_xnb2QCeQAAz86b2ZK-703" value="支付服务  admin后台" style="text;strokeColor=none;fillColor=#FDA353;align=left;verticalAlign=top;spacingLeft=4;spacingRight=4;overflow=hidden;rotatable=0;points=[[0,0.5],[1,0.5]];portConstraint=eastwest;" vertex="1" parent="Lp_xnb2QCeQAAz86b2ZK-699">
          <mxGeometry y="104" width="120" height="26" as="geometry" />
        </mxCell>
        <mxCell id="Lp_xnb2QCeQAAz86b2ZK-704" value="身份验证  系统监控" style="text;strokeColor=none;fillColor=#FDA353;align=left;verticalAlign=top;spacingLeft=4;spacingRight=4;overflow=hidden;rotatable=0;points=[[0,0.5],[1,0.5]];portConstraint=eastwest;" vertex="1" parent="Lp_xnb2QCeQAAz86b2ZK-699">
          <mxGeometry y="130" width="120" height="26" as="geometry" />
        </mxCell>
        <mxCell id="Lp_xnb2QCeQAAz86b2ZK-705" value="发布系统  日志系统" style="text;strokeColor=none;fillColor=#FDA353;align=left;verticalAlign=top;spacingLeft=4;spacingRight=4;overflow=hidden;rotatable=0;points=[[0,0.5],[1,0.5]];portConstraint=eastwest;" vertex="1" parent="Lp_xnb2QCeQAAz86b2ZK-699">
          <mxGeometry y="156" width="120" height="26" as="geometry" />
        </mxCell>
        <mxCell id="Lp_xnb2QCeQAAz86b2ZK-706" value="调度系统  队列服务" style="text;strokeColor=none;fillColor=#FDA353;align=left;verticalAlign=top;spacingLeft=4;spacingRight=4;overflow=hidden;rotatable=0;points=[[0,0.5],[1,0.5]];portConstraint=eastwest;" vertex="1" parent="Lp_xnb2QCeQAAz86b2ZK-699">
          <mxGeometry y="182" width="120" height="26" as="geometry" />
        </mxCell>
        <mxCell id="Lp_xnb2QCeQAAz86b2ZK-707" value="文件上传  文件CDN" style="text;strokeColor=none;fillColor=#FDA353;align=left;verticalAlign=top;spacingLeft=4;spacingRight=4;overflow=hidden;rotatable=0;points=[[0,0.5],[1,0.5]];portConstraint=eastwest;" vertex="1" parent="Lp_xnb2QCeQAAz86b2ZK-699">
          <mxGeometry y="208" width="120" height="26" as="geometry" />
        </mxCell>
        <mxCell id="Lp_xnb2QCeQAAz86b2ZK-708" value="文件存储  搜索服务" style="text;strokeColor=none;fillColor=#FDA353;align=left;verticalAlign=top;spacingLeft=4;spacingRight=4;overflow=hidden;rotatable=0;points=[[0,0.5],[1,0.5]];portConstraint=eastwest;" vertex="1" parent="Lp_xnb2QCeQAAz86b2ZK-699">
          <mxGeometry y="234" width="120" height="26" as="geometry" />
        </mxCell>
        <mxCell id="Lp_xnb2QCeQAAz86b2ZK-709" value="数据存储层" style="swimlane;html=1;startSize=20;horizontal=0;fillColor=#0B66FE;" vertex="1" parent="1">
          <mxGeometry x="460" y="3870" width="480" height="120" as="geometry" />
        </mxCell>
        <mxCell id="Lp_xnb2QCeQAAz86b2ZK-710" value="&lt;span&gt;(hive、imp)&lt;/span&gt;&lt;br&gt;&lt;span&gt;数据仓库&lt;/span&gt;" style="outlineConnect=0;dashed=0;verticalLabelPosition=bottom;verticalAlign=top;align=center;html=1;shape=mxgraph.aws3.table;fillColor=#2E73B8;gradientColor=none;" vertex="1" parent="Lp_xnb2QCeQAAz86b2ZK-709">
          <mxGeometry x="50" y="10" width="67.5" height="66" as="geometry" />
        </mxCell>
        <mxCell id="Lp_xnb2QCeQAAz86b2ZK-711" value="&lt;span&gt;(mysql)&lt;/span&gt;&lt;br&gt;&lt;span&gt;业务库&lt;/span&gt;" style="outlineConnect=0;dashed=0;verticalLabelPosition=bottom;verticalAlign=top;align=center;html=1;shape=mxgraph.aws3.mysql_db_instance;fillColor=#2E73B8;gradientColor=none;" vertex="1" parent="Lp_xnb2QCeQAAz86b2ZK-709">
          <mxGeometry x="160" y="10" width="60" height="66" as="geometry" />
        </mxCell>
        <mxCell id="Lp_xnb2QCeQAAz86b2ZK-712" value="&lt;span&gt;(es、redis)&lt;/span&gt;&lt;br&gt;&lt;span&gt;缓存&lt;/span&gt;" style="outlineConnect=0;dashed=0;verticalLabelPosition=bottom;verticalAlign=top;align=center;html=1;shape=mxgraph.aws3.cache_node;fillColor=#2E73B8;gradientColor=none;" vertex="1" parent="Lp_xnb2QCeQAAz86b2ZK-709">
          <mxGeometry x="270" y="10" width="60" height="63" as="geometry" />
        </mxCell>
        <mxCell id="Lp_xnb2QCeQAAz86b2ZK-713" value="&lt;span&gt;(ufile、S3)&lt;/span&gt;&lt;br&gt;&lt;span&gt;文件存储&lt;/span&gt;" style="outlineConnect=0;dashed=0;verticalLabelPosition=bottom;verticalAlign=top;align=center;html=1;shape=mxgraph.aws3.attributes;fillColor=#2E73B8;gradientColor=none;" vertex="1" parent="Lp_xnb2QCeQAAz86b2ZK-709">
          <mxGeometry x="380" y="8.5" width="63" height="66" as="geometry" />
        </mxCell>
        <mxCell id="Lp_xnb2QCeQAAz86b2ZK-714" value="" style="endArrow=classic;html=1;exitX=0.5;exitY=1;exitDx=0;exitDy=0;" edge="1" parent="1" source="Lp_xnb2QCeQAAz86b2ZK-670">
          <mxGeometry width="50" height="50" relative="1" as="geometry">
            <mxPoint x="530" y="3430" as="sourcePoint" />
            <mxPoint x="535" y="3410" as="targetPoint" />
          </mxGeometry>
        </mxCell>
        <mxCell id="Lp_xnb2QCeQAAz86b2ZK-715" value="" style="endArrow=classic;html=1;exitX=0.5;exitY=1;exitDx=0;exitDy=0;" edge="1" parent="1" source="Lp_xnb2QCeQAAz86b2ZK-672">
          <mxGeometry width="50" height="50" relative="1" as="geometry">
            <mxPoint x="545" y="3430" as="sourcePoint" />
            <mxPoint x="885" y="3410" as="targetPoint" />
          </mxGeometry>
        </mxCell>
        <mxCell id="Lp_xnb2QCeQAAz86b2ZK-716" value="" style="endArrow=none;dashed=1;html=1;dashPattern=1 3;strokeWidth=2;" edge="1" parent="1">
          <mxGeometry width="50" height="50" relative="1" as="geometry">
            <mxPoint x="500" y="3720" as="sourcePoint" />
            <mxPoint x="800" y="3720" as="targetPoint" />
          </mxGeometry>
        </mxCell>
        <mxCell id="Lp_xnb2QCeQAAz86b2ZK-717" value="grpc" style="edgeLabel;html=1;align=center;verticalAlign=middle;resizable=0;points=[];" vertex="1" connectable="0" parent="Lp_xnb2QCeQAAz86b2ZK-716">
          <mxGeometry x="-0.7733" relative="1" as="geometry">
            <mxPoint as="offset" />
          </mxGeometry>
        </mxCell>
        <mxCell id="Lp_xnb2QCeQAAz86b2ZK-718" value="mq" style="edgeLabel;html=1;align=center;verticalAlign=middle;resizable=0;points=[];" vertex="1" connectable="0" parent="Lp_xnb2QCeQAAz86b2ZK-716">
          <mxGeometry x="-0.42" y="1" relative="1" as="geometry">
            <mxPoint as="offset" />
          </mxGeometry>
        </mxCell>
        <mxCell id="Lp_xnb2QCeQAAz86b2ZK-719" value="rest api" style="edgeLabel;html=1;align=center;verticalAlign=middle;resizable=0;points=[];" vertex="1" connectable="0" parent="Lp_xnb2QCeQAAz86b2ZK-716">
          <mxGeometry x="0.26" y="3" relative="1" as="geometry">
            <mxPoint as="offset" />
          </mxGeometry>
        </mxCell>
        <mxCell id="Lp_xnb2QCeQAAz86b2ZK-720" value="mq" style="edgeLabel;html=1;align=center;verticalAlign=middle;resizable=0;points=[];" vertex="1" connectable="0" parent="Lp_xnb2QCeQAAz86b2ZK-716">
          <mxGeometry x="0.5733" y="3" relative="1" as="geometry">
            <mxPoint as="offset" />
          </mxGeometry>
        </mxCell>
        <mxCell id="Lp_xnb2QCeQAAz86b2ZK-721" value="" style="endArrow=classic;html=1;exitX=0.671;exitY=1.115;exitDx=0;exitDy=0;exitPerimeter=0;" edge="1" parent="1" source="Lp_xnb2QCeQAAz86b2ZK-694">
          <mxGeometry width="50" height="50" relative="1" as="geometry">
            <mxPoint x="720" y="3770" as="sourcePoint" />
            <mxPoint x="754" y="3720" as="targetPoint" />
          </mxGeometry>
        </mxCell>
        <mxCell id="Lp_xnb2QCeQAAz86b2ZK-722" value="" style="endArrow=classic;html=1;exitX=0.207;exitY=1.077;exitDx=0;exitDy=0;exitPerimeter=0;" edge="1" parent="1" source="Lp_xnb2QCeQAAz86b2ZK-694">
          <mxGeometry width="50" height="50" relative="1" as="geometry">
            <mxPoint x="763.94" y="3706.99" as="sourcePoint" />
            <mxPoint x="689" y="3720" as="targetPoint" />
          </mxGeometry>
        </mxCell>
        <mxCell id="Lp_xnb2QCeQAAz86b2ZK-723" value="" style="endArrow=classic;html=1;" edge="1" parent="1">
          <mxGeometry width="50" height="50" relative="1" as="geometry">
            <mxPoint x="610" y="3696" as="sourcePoint" />
            <mxPoint x="610" y="3717" as="targetPoint" />
          </mxGeometry>
        </mxCell>
        <mxCell id="Lp_xnb2QCeQAAz86b2ZK-724" value="" style="endArrow=classic;html=1;exitX=0.25;exitY=1.077;exitDx=0;exitDy=0;exitPerimeter=0;" edge="1" parent="1" source="Lp_xnb2QCeQAAz86b2ZK-690">
          <mxGeometry width="50" height="50" relative="1" as="geometry">
            <mxPoint x="783.94" y="3726.99" as="sourcePoint" />
            <mxPoint x="535" y="3720" as="targetPoint" />
          </mxGeometry>
        </mxCell>
        <mxCell id="Lp_xnb2QCeQAAz86b2ZK-725" value="" style="endArrow=classic;html=1;entryX=0.5;entryY=0;entryDx=0;entryDy=0;" edge="1" parent="1" target="Lp_xnb2QCeQAAz86b2ZK-695">
          <mxGeometry width="50" height="50" relative="1" as="geometry">
            <mxPoint x="650" y="3720" as="sourcePoint" />
            <mxPoint x="794" y="3760" as="targetPoint" />
          </mxGeometry>
        </mxCell>
        <mxCell id="Lp_xnb2QCeQAAz86b2ZK-726" value="" style="endArrow=classic;html=1;entryX=0.5;entryY=0;entryDx=0;entryDy=0;" edge="1" parent="1" target="Lp_xnb2QCeQAAz86b2ZK-683">
          <mxGeometry width="50" height="50" relative="1" as="geometry">
            <mxPoint x="723" y="3480" as="sourcePoint" />
            <mxPoint x="730" y="3509" as="targetPoint" />
          </mxGeometry>
        </mxCell>
        <mxCell id="Lp_xnb2QCeQAAz86b2ZK-727" value="" style="edgeStyle=orthogonalEdgeStyle;rounded=0;orthogonalLoop=1;jettySize=auto;html=1;" edge="1" parent="1" source="Lp_xnb2QCeQAAz86b2ZK-681">
          <mxGeometry relative="1" as="geometry">
            <mxPoint x="682.5" y="3530" as="targetPoint" />
          </mxGeometry>
        </mxCell>
        <mxCell id="Lp_xnb2QCeQAAz86b2ZK-728" value="" style="edgeStyle=orthogonalEdgeStyle;rounded=0;orthogonalLoop=1;jettySize=auto;html=1;" edge="1" parent="1" source="Lp_xnb2QCeQAAz86b2ZK-683">
          <mxGeometry relative="1" as="geometry">
            <mxPoint x="820" y="3530" as="targetPoint" />
          </mxGeometry>
        </mxCell>
        <mxCell id="Lp_xnb2QCeQAAz86b2ZK-729" value="" style="edgeStyle=orthogonalEdgeStyle;rounded=0;orthogonalLoop=1;jettySize=auto;html=1;" edge="1" parent="1" source="Lp_xnb2QCeQAAz86b2ZK-682">
          <mxGeometry relative="1" as="geometry">
            <mxPoint x="760" y="3530" as="targetPoint" />
          </mxGeometry>
        </mxCell>
        <mxCell id="Lp_xnb2QCeQAAz86b2ZK-730" value="" style="edgeStyle=orthogonalEdgeStyle;rounded=0;orthogonalLoop=1;jettySize=auto;html=1;" edge="1" parent="1" source="Lp_xnb2QCeQAAz86b2ZK-683">
          <mxGeometry relative="1" as="geometry">
            <mxPoint x="620" y="3530" as="targetPoint" />
          </mxGeometry>
        </mxCell>
      </root>
    </mxGraphModel>
  </diagram>
</mxfile>
